<svg xmlns="http://www.w3.org/2000/svg" width="17" height="17" viewBox="0 0 17 17">
    <path fill="currentColor" fill-rule="nonzero" d="M13.184 11.617a2.716 2.716 0 0 1-1.117-2.2V7.582c0-1.536-1.05-2.834-2.482-3.234v-.432A.925.925 0 0 0 8.655 3a.925.925 0 0 0-.932.917v.432c-1.43.4-2.482 1.698-2.482 3.234v1.833c0 .874-.407 1.675-1.117 2.2a.303.303 0 0 0-.108.342.31.31 0 0 0 .294.209h2.824c-.02.1-.032.202-.032.305 0 .842.696 1.528 1.552 1.528.855 0 1.551-.686 1.551-1.528 0-.102-.01-.205-.031-.305h2.824a.31.31 0 0 0 .294-.21.303.303 0 0 0-.108-.34zm-4.84-7.7c0-.169.139-.306.31-.306.171 0 .31.137.31.306v.32a3.471 3.471 0 0 0-.62 0v-.32zm1.241 8.555a.925.925 0 0 1-.93.916.925.925 0 0 1-.932-.916c0-.105.019-.208.054-.306h1.755a.913.913 0 0 1 .053.306zm-4.504-.917c.158-.189.296-.395.409-.612a3.28 3.28 0 0 0 .372-1.527V7.583c0-1.516 1.252-2.75 2.792-2.75 1.54 0 2.793 1.234 2.793 2.75v1.833a3.288 3.288 0 0 0 .78 2.14H5.08z"/>
</svg>
