<svg xmlns="http://www.w3.org/2000/svg" width="17" height="17" viewBox="0 0 17 17">
    <g fill="currentColor">
        <path d="M14.656 13.63H2.342a.346.346 0 0 1-.295-.16.308.308 0 0 1-.003-.322L8.2 2.81a.347.347 0 0 1 .298-.165c.124 0 .238.063.298.165l6.157 10.338a.31.31 0 0 1-.002.322c-.061.1-.174.16-.296.16zm-11.729-.646h11.144L8.5 3.628l-5.572 9.356z"/>
        <path d="M8.5 10.4a.333.333 0 0 1-.343-.324v-3.23c0-.178.153-.323.342-.323.189 0 .342.145.342.323v3.23a.333.333 0 0 1-.342.323zM8.5 12.338a.333.333 0 0 1-.343-.323v-.646c0-.179.153-.323.342-.323.189 0 .342.144.342.323v.646a.333.333 0 0 1-.342.323z"/>
    </g>
</svg>
