<?xml version="1.0" encoding="utf-8"?>
<!-- Generator: Adobe Illustrator 25.2.3, SVG Export Plug-In . SVG Version: 6.00 Build 0)  -->
<svg version="1.1" id="Layer_1" xmlns="http://www.w3.org/2000/svg" xmlns:xlink="http://www.w3.org/1999/xlink" x="0px" y="0px"
	 viewBox="0 0 15.7 19" style="enable-background:new 0 0 15.7 19;" xml:space="preserve">
<style type="text/css">
	.st0{fill-rule:evenodd;clip-rule:evenodd;fill:#EEEEEE;}
</style>
<g id="Icons_x2F_General_x2F_Calendar">
	<path id="Shape" class="st0" d="M4.7,0c0.4,0,0.8,0.4,0.8,1v1h4.7V1c0-0.6,0.4-1,0.8-1h0.8c0.4,0,0.8,0.4,0.8,1v1h2
		c0.6,0,1.1,0.6,1.2,1.4v0.1v14c0,0.8-0.5,1.4-1.1,1.5h-0.1H1.2c-0.6,0-1.1-0.6-1.2-1.4v-0.1v-14C0,2.7,0.5,2.1,1.1,2h0.1h2V1
		c0-0.6,0.4-1,0.8-1H4.7z M14.9,8H0.8v9.5c0,0.2,0.1,0.4,0.3,0.5h0.1h13.3c0.2,0,0.4-0.2,0.4-0.4v-0.1V8z M3.1,3h-2
		C1,3,0.8,3.2,0.8,3.4v0.1V7h14.1V3.5c0-0.2-0.1-0.4-0.3-0.5h-0.1h-2l0,0c0,0.6-0.4,1-0.8,1H11c-0.4,0-0.8-0.4-0.8-1l0,0H5.5l0,0
		c0,0.6-0.4,1-0.8,1H3.9C3.5,4,3.1,3.6,3.1,3L3.1,3z M4.7,1H3.9v2h0.8C4.7,3,4.7,1,4.7,1z M11.8,1H11v2h0.8V1z"/>
</g>
</svg>
