<?xml version="1.0" encoding="utf-8"?>
<!-- Generator: Adobe Illustrator 25.2.3, SVG Export Plug-In . SVG Version: 6.00 Build 0)  -->
<svg version="1.1" id="Layer_1" xmlns="http://www.w3.org/2000/svg" xmlns:xlink="http://www.w3.org/1999/xlink" x="0px" y="0px"
	 viewBox="0 0 20 20" style="enable-background:new 0 0 20 20;" xml:space="preserve">
<style type="text/css">
	.st0{fill:#EEEEEE;}
</style>
<g id="Icons_x2F_UI_x2F_Card-view">
	<path id="Combined-Shape" class="st0" d="M19,8c0.6,0,1,0.5,1,1.1v9.8c0,0.6-0.4,1.1-1,1.1h-7c-0.6,0-1-0.5-1-1.1V9.1
		C11,8.5,11.4,8,12,8H19z M8,14c0.6,0,1,0.4,1,1v4c0,0.6-0.4,1-1,1H1c-0.6,0-1-0.4-1-1v-4c0-0.6,0.4-1,1-1H8z M19,9h-7v10h7V9z
		 M8,15H1v4h7V15z M8,0c0.6,0,1,0.5,1,1.1v9.8C9,11.5,8.6,12,8,12H1c-0.6,0-1-0.5-1-1.1V1.1C0,0.5,0.4,0,1,0H8z M8,1H1v10h7V1z
		 M19,0c0.6,0,1,0.4,1,1v4c0,0.6-0.4,1-1,1h-7c-0.6,0-1-0.4-1-1V1c0-0.6,0.4-1,1-1H19z M19,1h-7v4h7V1z"/>
</g>
</svg>
