<?xml version="1.0" encoding="utf-8"?>
<!-- Generator: Adobe Illustrator 25.2.3, SVG Export Plug-In . SVG Version: 6.00 Build 0)  -->
<svg version="1.1" id="Layer_1" xmlns="http://www.w3.org/2000/svg" xmlns:xlink="http://www.w3.org/1999/xlink" x="0px" y="0px"
	 viewBox="0 0 20 20" style="enable-background:new 0 0 20 20;" xml:space="preserve">
<style type="text/css">
	.st0{fill-rule:evenodd;clip-rule:evenodd;fill:#EEEEEE;}
</style>
<g id="Icons_x2F_General_x2F_Manufacturer">
	<path id="Shape" class="st0" d="M18.4,0c0.3,0,0.5,0.2,0.5,0.5l1.1,19c0,0.3-0.2,0.5-0.5,0.5H10v-3.5c0-0.2-0.1-0.4-0.3-0.5H9.6
		H9.5h-3c-0.2,0-0.4,0.1-0.5,0.3v0.1v0.1V20H1.5c-0.8,0-1.4-0.6-1.5-1.4v-0.1v-5c0-0.8,0.6-1.4,1.4-1.5h0.1h6.6L9,3.5
		C9,3.2,9.2,3,9.5,3h2.1c0.3,0,0.5,0.2,0.5,0.5l0.9,8.6h1.6l0.7-11.6c0-0.3,0.2-0.5,0.5-0.5H18.4z M14.4,13H1.5
		C1.3,13,1,13.2,1,13.4v0.1v5c0,0.2,0.2,0.4,0.4,0.5h0.1H5v-2.5v-0.1c0.1-0.7,0.7-1.3,1.4-1.3h0.1h3h0.1c0.7,0.1,1.3,0.6,1.3,1.3
		v0.1V19H14L14.4,13z M17.9,1h-1.7l-1.1,18H19L17.9,1z M11.1,4H9.9l-0.8,8h2.8L11.1,4z"/>
</g>
</svg>
