<svg xmlns="http://www.w3.org/2000/svg" width="17" height="17" viewBox="0 0 17 17">
    <path fill="currentColor" fill-rule="nonzero" d="M11.61 7.948h.002a.324.324 0 0 1 0 .457L8.377 11.64a.323.323 0 0 1-.458 0L4.683 8.407a.324.324 0 0 1 .458-.458l2.683 2.683V3.324a.324.324 0 0 1 .647 0v7.307l2.682-2.683a.324.324 0 0 1 .458 0zM13.325 14H2.97A.972.972 0 0 1 2 13.03v-1.295a.324.324 0 0 1 .647 0v1.294c0 .179.145.324.324.324h10.353a.324.324 0 0 0 .323-.324v-1.294a.324.324 0 0 1 .647 0v1.294c0 .536-.435.971-.97.971z"/>
</svg>
