<?xml version="1.0" encoding="utf-8"?>
<!-- Generator: Adobe Illustrator 25.2.3, SVG Export Plug-In . SVG Version: 6.00 Build 0)  -->
<svg version="1.1" id="Layer_1" xmlns="http://www.w3.org/2000/svg" xmlns:xlink="http://www.w3.org/1999/xlink" x="0px" y="0px"
	 viewBox="0 0 15 15" style="enable-background:new 0 0 15 15;" xml:space="preserve">
<style type="text/css">
	.st0{fill-rule:evenodd;clip-rule:evenodd;}
</style>
<g id="Icons_x2F_UI_x2F_Edit">
	<path id="Fill" class="st0" d="M12.5,0.6l1.9,1.9c0.8,0.8,0.8,2,0,2.8l-1.8,1.8c-0.3,0.3-0.7,0.7-1.1,1.1l-0.6,0.6
		c-2.7,2.7-1.4,1.4-6,6C4.8,14.9,4.7,15,4.6,15H4.5H0.1C0,15,0,15,0,14.9v-0.4v-3.8c0-0.1,0-0.2,0.1-0.3l0.1-0.1L8,2.4l0,0l1.8-1.8
		C10.5-0.2,11.7-0.2,12.5,0.6z M8.3,3.5L1,10.9V12l2,2h1.4l7.2-7.2L10.8,6L8.3,3.5z M10.5,1.2L10.5,1.2L9,2.7L12.3,6l1.4-1.4
		c0.4-0.4,0.4-0.9,0.1-1.3l-0.1-0.1l-1.9-1.9C11.5,0.9,10.9,0.9,10.5,1.2z"/>
</g>
</svg>
