<?xml version="1.0" encoding="utf-8"?>
<!-- Generator: Adobe Illustrator 26.0.3, SVG Export Plug-In . SVG Version: 6.00 Build 0)  -->
<svg version="1.1" xmlns="http://www.w3.org/2000/svg" xmlns:xlink="http://www.w3.org/1999/xlink" x="0px" y="0px"
	 viewBox="0 0 24 24" style="enable-background:new 0 0 24 24;" xml:space="preserve">
<style type="text/css">
	.st0{fill:#FFFFFF;}
	.st1{fill:#FFFDFD;}
	.st2{fill:none;stroke:#FFFFFF;stroke-miterlimit:10;}
</style>
<g id="mdi-expand-all-outline">
	<polyline class="st0" points="20.4,11.9 14.4,19.2 8.6,11.9 	"/>
	<path class="st1" d="M5.2,3.2c-1.1,0-2,0.9-2,2v14l1-1V5.3c0-0.6,0.5-1.1,1.1-1.1h12.9l1-1H5.2"/>
	<path class="st1" d="M2.7,0.9c-1.1,0-2,0.9-2,2v14l1-1V3c0-0.6,0.5-1.1,1.1-1.1h12.9l1-1H2.7"/>
</g>
<g id="Layer_2">
	<path class="st2" d="M20.2,6.1H7.7C6.7,6.1,6,6.8,6,7.7v13.7c0,0.9,0.8,1.7,1.7,1.7h13.7c0.9,0,1.7-0.8,1.7-1.7V8.9
		C23,7.3,21.7,6.1,20.2,6.1"/>
</g>
</svg>
