<?xml version="1.0" encoding="utf-8"?>
<!-- Generator: Adobe Illustrator 26.0.3, SVG Export Plug-In . SVG Version: 6.00 Build 0)  -->
<svg version="1.1" id="mdi-expand-all-outline" xmlns="http://www.w3.org/2000/svg" xmlns:xlink="http://www.w3.org/1999/xlink"
	 x="0px" y="0px" viewBox="0 0 24 24" style="enable-background:new 0 0 24 24;" xml:space="preserve">
<path d="M4,2C2.9,2,2,2.9,2,4v10h2V4h10V2H4 M8,6C6.9,6,6,6.9,6,8v10h2V8h10V6H8 M20.8,11.2v9.7h-9.7v-9.7H20.8 M20,10h-8
	c-1.1,0-2,0.9-2,2v8c0,1.1,0.9,2,2,2h8c1.1,0,2-0.9,2-2v-8C22,10.9,21.1,10,20,10"/>
<polyline points="19.9,14.8 15.9,18.5 12,14.8 "/>
</svg>
