<svg xmlns="http://www.w3.org/2000/svg" width="17" height="17" viewBox="0 0 17 17">
	<g fill="currentColor" fill-rule="nonzero">
	    <path d="M6.96 14.806a.32.32 0 0 1-.081-.01 6.469 6.469 0 0 1-1.667-.688.325.325 0 0 1-.12-.437 1.303 1.303 0 0 0-1.143-1.922c-.217 0-.432.055-.622.158a.325.325 0 0 1-.436-.12 6.478 6.478 0 0 1-.688-1.667.325.325 0 0 1 .211-.389 1.3 1.3 0 0 0 0-2.463.325.325 0 0 1-.211-.39c.15-.583.381-1.144.688-1.666a.325.325 0 0 1 .436-.12 1.3 1.3 0 0 0 1.764-1.765.325.325 0 0 1 .121-.436 6.478 6.478 0 0 1 1.667-.688.325.325 0 0 1 .389.211 1.3 1.3 0 0 0 2.463 0 .326.326 0 0 1 .389-.211c.584.15 1.144.381 1.666.688a.325.325 0 0 1 .121.436A1.303 1.303 0 0 0 13.05 5.25c.217 0 .433-.054.622-.158a.325.325 0 0 1 .437.121c.306.523.538 1.083.688 1.667a.325.325 0 0 1-.211.389 1.3 1.3 0 0 0 0 2.463.325.325 0 0 1 .21.389 6.469 6.469 0 0 1-.687 1.666.325.325 0 0 1-.437.121 1.303 1.303 0 0 0-1.922 1.142c0 .217.055.433.158.622a.325.325 0 0 1-.12.437 6.478 6.478 0 0 1-1.667.688.325.325 0 0 1-.389-.211 1.3 1.3 0 0 0-2.463 0 .326.326 0 0 1-.308.221zM8.5 13.05a1.95 1.95 0 0 1 1.726 1.041c.338-.104.667-.24.981-.404a1.952 1.952 0 0 1 2.48-2.48c.165-.315.3-.643.405-.982a1.949 1.949 0 0 1 0-3.451 5.862 5.862 0 0 0-.404-.982 1.952 1.952 0 0 1-2.48-2.48 5.786 5.786 0 0 0-.982-.405 1.949 1.949 0 0 1-3.452 0c-.338.104-.667.24-.981.405a1.952 1.952 0 0 1-2.48 2.48c-.165.315-.301.643-.405.982a1.949 1.949 0 0 1 0 3.451c.104.338.24.667.404.982a1.952 1.952 0 0 1 2.48 2.48c.315.164.644.3.982.404A1.949 1.949 0 0 1 8.5 13.05z"/>
	    <path d="M8.5 10.45A1.952 1.952 0 0 1 6.55 8.5c0-1.075.875-1.95 1.95-1.95s1.95.875 1.95 1.95-.875 1.95-1.95 1.95zm0-3.25c-.717 0-1.3.583-1.3 1.3 0 .717.583 1.3 1.3 1.3.717 0 1.3-.583 1.3-1.3 0-.717-.583-1.3-1.3-1.3z"/>
	</g>
</svg>
