<?xml version="1.0" encoding="utf-8"?>
<!-- Generator: Adobe Illustrator 25.4.1, SVG Export Plug-In . SVG Version: 6.00 Build 0)  -->
<svg version="1.1" id="Layer_1" xmlns="http://www.w3.org/2000/svg" xmlns:xlink="http://www.w3.org/1999/xlink" x="0px" y="0px"
	 viewBox="0 0 22 21" style="enable-background:new 0 0 22 21;" xml:space="preserve">
<style type="text/css">
	.st0{fill-rule:evenodd;clip-rule:evenodd;fill:#EEEEEE;}
	.st1{fill:#EEEEEE;}
</style>
<g id="Layer_1_1_">
	<path class="st0" d="M2.1,20.5v-14H1c-0.6,0-1.1-0.4-1.1-1C-0.1,5.2,0,5,0.2,4.8l10-4c0.4-0.4,1.1-0.4,1.6,0l10,4
		c0.4,0.4,0.4,1,0,1.4c-0.2,0.2-0.5,0.3-0.8,0.3h-1.2v14 M18.7,20.5V5.6l2.2-0.1l-10-4l-10,4l2.2,0.1v14.9"/>
</g>
<g id="EEyBrM.tif">
	<g>
		<path class="st1" d="M4.6,11.8c0,0.1,6.3-2.4,6.4-2.4c1.8,0.7,4,1.5,5.8,2.2c0.1,0,0.2,0.1,0.2,0.2c0,2,0,4,0,6
			c0,0.1-0.1,0.2-0.2,0.2c-1.9,0.9-3.8,1.8-5.7,2.6c-0.1,0-0.1,0-0.2,0c-0.5-0.2-1-0.4-1.5-0.6C7.9,19.4,5,18.1,5,18.1L4.7,18
			c0,0-0.2-0.1-0.1-0.3 M10.6,19.9C10.6,19.8,10.6,19.8,10.6,19.9c0-1.8,0-3.5,0-5.2c0-0.1,0-0.1-0.1-0.1c-0.7-0.3-1.4-0.6-2.1-0.9
			c0,0-0.1,0-0.1,0c0,0,0,0.1,0,0.1c0,0.3,0,0.7,0,1c0,0.1,0,0.1,0,0.2c-0.1,0.1-0.2,0.2-0.4,0.2c-0.2,0-0.3-0.1-0.3-0.3
			c0-0.5,0-0.9,0-1.4c0-0.1,0-0.1-0.1-0.1c-0.6-0.3-1.2-0.5-1.8-0.8c-0.1,0-0.2-0.1-0.3-0.1c0,0.1,0,0.1,0,0.1c0,1.7,0,3.3,0,5
			c0,0.1,0,0.1,0.1,0.2c1.5,0.6,3,1.3,4.4,1.9C10.1,19.7,10.3,19.8,10.6,19.9z M16.3,12.4c-0.1,0-0.1,0-0.1,0
			c-1.6,0.7-3.2,1.4-4.7,2.1c-0.1,0-0.1,0.1-0.1,0.1c0,0.6,0,3.4,0,5.1c0,0,0,0.1,0,0.1c0.1,0,0.1,0,0.1-0.1
			c1.6-0.7,3.1-1.4,4.7-2.2c0.1,0,0.1-0.1,0.1-0.2c0-1.7,0-3.3,0-5C16.3,12.4,16.3,12.4,16.3,12.4z M15.9,11.9c-0.1,0-0.1,0-0.1-0.1
			c-0.6-0.2-1.2-0.5-1.8-0.7c-0.1,0-0.1,0-0.2,0c-1.6,0.7-3.2,1.3-4.8,2c0,0-0.1,0-0.1,0.1c0,0,0.1,0,0.1,0.1c0.7,0.3,1.3,0.6,2,0.9
			c0.1,0,0.1,0,0.2,0c1.5-0.7,2.9-1.3,4.4-2C15.6,12,15.7,11.9,15.9,11.9z M5.7,11.9C5.8,11.9,5.8,11.9,5.7,11.9
			c0.8,0.3,1.4,0.6,2.1,0.9c0,0,0.1,0,0.2,0c1.6-0.7,3.2-1.3,4.8-2c0,0,0.1,0,0.1-0.1c0,0,0,0-0.1,0c-0.6-0.2-1.2-0.5-1.9-0.7
			c0,0-0.1,0-0.2,0c-0.7,0.2-1.4,0.5-2.1,0.7C7.8,11.1,6.8,11.5,5.7,11.9z"/>
	</g>
</g>
</svg>
