<svg xmlns="http://www.w3.org/2000/svg" xmlns:xlink="http://www.w3.org/1999/xlink" width="17" height="17" viewBox="0 0 17 17">
    <defs>
        <path id="a" d="M0 0h13v13H0z"/>
    </defs>
    <g fill="none" fill-rule="evenodd">
        <g transform="translate(2 2)">
            <mask id="b" fill="#fff">
                <use xlink:href="#a"/>
            </mask>
            <path fill="currentColor" d="M6.5 12.315A5.82 5.82 0 0 1 .685 6.5 5.822 5.822 0 0 1 6.5.684 5.823 5.823 0 0 1 12.316 6.5 5.822 5.822 0 0 1 6.5 12.315m4.597-10.41A6.457 6.457 0 0 0 6.5 0a6.455 6.455 0 0 0-4.597 1.904A6.46 6.46 0 0 0 0 6.501c0 1.735.676 3.368 1.903 4.595A6.46 6.46 0 0 0 6.5 13a6.46 6.46 0 0 0 4.597-1.904A6.456 6.456 0 0 0 13 6.501a6.456 6.456 0 0 0-1.903-4.597" mask="url(#b)"/>
        </g>
        <path fill="currentColor" d="M8.5 6.583a.46.46 0 0 0-.458.459v4.833a.46.46 0 0 0 .458.458.46.46 0 0 0 .458-.458V7.042a.46.46 0 0 0-.458-.46M8.5 4.667a.46.46 0 0 0-.458.458.46.46 0 0 0 .458.458.46.46 0 0 0 .458-.458.46.46 0 0 0-.458-.458"/>
    </g>
</svg>
