<svg xmlns="http://www.w3.org/2000/svg" width="17" height="17" viewBox="0 0 17 17">
    <path fill="currentColor" d="M14.675 12.308h-9.75c-.18 0-.325-.155-.325-.346 0-.192.146-.347.325-.347h9.75c.18 0 .325.155.325.347 0 .19-.146.346-.325.346zM14.675 8.846h-9.75c-.18 0-.325-.155-.325-.346 0-.191.146-.346.325-.346h9.75c.18 0 .325.155.325.346 0 .191-.146.346-.325.346zM14.675 5.385h-9.75c-.18 0-.325-.155-.325-.347 0-.19.146-.346.325-.346h9.75c.18 0 .325.155.325.346 0 .192-.146.347-.325.347zM2.975 6.077C2.437 6.077 2 5.61 2 5.038 2 4.466 2.437 4 2.975 4s.975.466.975 1.038c0 .573-.437 1.039-.975 1.039zm0-1.385c-.18 0-.325.155-.325.346 0 .192.146.347.325.347.18 0 .325-.155.325-.347 0-.19-.146-.346-.325-.346zM2.975 9.538C2.437 9.538 2 9.073 2 8.5s.437-1.038.975-1.038.975.465.975 1.038-.437 1.038-.975 1.038zm0-1.384c-.18 0-.325.155-.325.346 0 .191.146.346.325.346.18 0 .325-.155.325-.346 0-.191-.146-.346-.325-.346zM2.975 13C2.437 13 2 12.534 2 11.962c0-.573.437-1.039.975-1.039s.975.466.975 1.039c0 .572-.437 1.038-.975 1.038zm0-1.385c-.18 0-.325.155-.325.347 0 .19.146.346.325.346.18 0 .325-.155.325-.346 0-.192-.146-.347-.325-.347z"/>
</svg>
