<svg xmlns="http://www.w3.org/2000/svg" width="17" height="17" viewBox="0 0 17 17">
    <path fill="currentColor" d="M13.694 4.692h-6.11c-.17 0-.306-.155-.306-.346 0-.19.137-.346.305-.346h6.111c.17 0 .306.155.306.346 0 .191-.137.346-.306.346zM13.694 7.462h-6.11c-.17 0-.306-.156-.306-.347 0-.19.137-.346.305-.346h6.111c.17 0 .306.155.306.346 0 .191-.137.347-.306.347zM13.694 10.23h-6.11c-.17 0-.306-.154-.306-.345 0-.191.137-.347.305-.347h6.111c.17 0 .306.156.306.347 0 .19-.137.346-.306.346zM13.694 13h-6.11c-.17 0-.306-.155-.306-.346 0-.191.137-.346.305-.346h6.111c.17 0 .306.155.306.346 0 .19-.137.346-.306.346zM5.534 10.678l-.7.793V5.527l.7.794c.06.067.138.1.216.1a.29.29 0 0 0 .216-.1.38.38 0 0 0 0-.49L4.744 4.447a.281.281 0 0 0-.432 0L3.09 5.83a.38.38 0 0 0 0 .49c.119.135.313.135.432 0l.7-.794v5.944l-.7-.793a.281.281 0 0 0-.432 0 .38.38 0 0 0 0 .49l1.222 1.384c.06.068.138.101.216.101a.29.29 0 0 0 .217-.1l1.222-1.386a.38.38 0 0 0 0-.489.281.281 0 0 0-.432 0h-.001z"/>
</svg>
