<svg xmlns="http://www.w3.org/2000/svg" width="17" height="17" viewBox="0 0 17 17">
    <path fill="currentColor" fill-rule="nonzero" d="M12.73 6.588h-.422V5.441C12.308 3.544 10.599 2 8.5 2 6.4 2 4.692 3.544 4.692 5.441v1.147H4.27C3.57 6.588 3 7.103 3 7.735v6.118C3 14.485 3.57 15 4.27 15h8.46c.7 0 1.27-.515 1.27-1.147V7.735c0-.632-.57-1.147-1.27-1.147zM5.539 5.441c0-1.476 1.329-2.676 2.962-2.676 1.633 0 2.962 1.2 2.962 2.676v1.147H5.538V5.441zm7.616 8.412c0 .211-.19.382-.423.382H4.269c-.233 	0-.423-.171-.423-.382V7.735c0-.21.19-.382.423-.382h8.462c.233 0 .423.171.423.382v6.118z"/>
</svg>
