<?xml version="1.0" encoding="utf-8"?>
<!-- Generator: Adobe Illustrator 26.0.3, SVG Export Plug-In . SVG Version: 6.00 Build 0)  -->
<svg version="1.1" id="Layer_1" xmlns="http://www.w3.org/2000/svg" xmlns:xlink="http://www.w3.org/1999/xlink" x="0px" y="0px"
	 viewBox="0 0 98.4 91.4" style="enable-background:new 0 0 98.4 91.4;" xml:space="preserve">
<style type="text/css">
	.st0{fill:#FFFFFF;}
</style>
<g>
	<g>
		<path class="st0" d="M98.4,91.4c-32.8,0-65.6,0-98.4,0C0,61,0,30.5,0,0c32.8,0,65.6,0,98.4,0C98.4,30.5,98.4,61,98.4,91.4z
			 M90.9,40.4c0-0.4,0-0.7,0-1c-0.7-5.1-2-10.1-4.3-14.8c-3.8-7.9-9.2-14.4-16.9-18.7C58.3-0.6,46.2-1.4,33.8,2.6
			C22.1,6.3,13.3,13.5,8.2,24.8C3.3,35.9,3.1,47.3,6.9,58.7c3.3,9.9,9.1,17.9,18,23.4c10.9,6.7,22.6,7.7,34.7,4.4
			c16.1-4.4,26.5-14.7,30.5-31.2c0.5-2.1,0.7-4.4,1.1-6.6c-1.1,0-1.8,0-2.6,0c-0.1,0.6-0.2,1.2-0.3,1.7c-1,3.6-2,7.1-3.1,10.7
			c-0.4,1.4-1.3,2.1-2.9,2c-1.9-0.1-3.9,0-5.9,0c1.4-4.8,2.4-9.5,2.8-14.3c-1.1,0-2,0-3,0c-0.1,1.1-0.2,2.2-0.4,3.2
			c-0.7,3.3-1.5,6.7-2.4,10c-0.1,0.4-0.7,1-1.1,1c-3.6,0.1-7.3,0.1-10.9,0.1c-0.1,0-0.1-0.1-0.3-0.2c0.2-3.4,0.5-6.8,0.7-10.2
			c-1.1,1.1-2.1,2.3-2.9,3.5c-0.3,0.4-0.4,0.9-0.4,1.3c-0.2,1.5-0.4,3-0.5,4.5c-0.1,0.9-0.5,1.1-1.3,1.1c-4,0-7.9,0-11.9,0.1
			c-2.9,0-2.9,0.1-3.5,2.9c0,0.1,0,0.2,0.1,0.4c5.2,0,10.4,0,16.1,0c-1.2,3.9-2.1,7.5-3.4,11c-0.7,1.9-1.8,3.7-3.1,5.3
			c-2,2.4-4.5,2.5-6.5,0c-1.4-1.7-2.4-3.8-3.4-5.8c-0.6-1.2-0.9-2.6-1.4-4c-0.8,2.4-1.8,4.6-0.3,6.9c0.5,0.7,0.6,1.6,0.9,2.5
			c0.1,0.4,0.1,0.8,0.1,1.3c-7-2.6-13.7-10.3-16.4-17.3c3.4,0,6.8,0,10.2,0c-0.2-1.1-0.4-2.1-0.6-3.2c-0.5,0-0.9,0-1.3,0
			c-2.3,0-4.6,0-6.8,0c-3.2-0.1-3.2-0.1-3.9-3.2c-0.8-3.7-1.5-7.4-2.2-11.2c-0.8,0-1.7,0-3,0c1,4.8,1.9,9.5,2.8,14.3
			c-2,0-4.2-0.1-6.3,0c-1,0-1.4-0.3-1.8-1.1C9,58.1,7.9,54,7.2,49.8c-0.2-1-0.3-2-0.4-3.1c4,0,7.6-0.1,11.3,0c1.1,0,1.6-0.4,2-1.4
			c1.8-4.5,3.7-9,5.6-13.5c0.8-1.9,1.6-3.8,2.4-5.7c0.1,0,0.2,0,0.3,0c3.2,15.5,6.3,31,9.5,46.6c0.1,0,0.1,0,0.2,0
			c3.3-13.2,6.7-26.4,10-39.6c0.1,0,0.2,0,0.3,0c2.8,7.4,5.6,14.8,8.5,22.4c2.1-2.7,4-5.2,5.8-7.8c0.6-0.8,1.2-1.1,2.2-1.1
			c8.3,0,16.6,0,25,0c0.5,0,0.9,0,1.4,0c0-1.5,0-2.8,0-4.1c-0.2,0-0.4-0.1-0.5-0.1c-9.5,0-19,0-28.6,0c-0.4,0-1,0.3-1.2,0.7
			c-1,1.2-1.8,2.4-2.9,3.8c-3.5-9.4-7-18.6-10.5-27.8c-0.1,0-0.2,0-0.3,0c-2.9,11.5-5.8,23.1-8.8,34.6c-1.7-7-3.1-14-4.5-21
			c-1.4-7-2.9-14-4.3-21.2c-0.2,0.5-0.4,0.8-0.5,1.1c-4,9.6-8,19.1-12,28.7c-0.3,0.8-0.7,1.1-1.6,1.1c-2.9-0.1-5.9,0-8.9,0
			c0.4-5.4,1.5-10.7,3.9-15.6c0.2-0.4,0.6-0.9,0.9-0.9c2.4-0.1,4.9,0,7.3,0c-0.7,3.5-1.5,7-2.2,10.4c0.1,0,0.2,0.1,0.4,0.1
			c3.6-8.7,7.3-17.4,10.9-26c-0.5,0.2-0.8,0.4-1,0.8c-2.1,3.5-4.2,7-6.4,10.5c-0.2,0.4-0.6,0.9-1,0.9c-2.1,0.1-4.3,0-6.4,0
			c0.1-0.2,0.1-0.3,0.1-0.4c0.2-0.3,0.4-0.7,0.7-1c3.2-4.6,7.1-8.3,11.7-11.4c2-1.3,4.4-2.3,4.5-5.3c0.1,0.1,0.2,0.1,0.3,0.2
			c0.4,1.9,0.8,3.7,1.2,5.8c2.8-2.6,5.6-4.8,9.2-6c-0.2,0.5-0.2,0.8-0.4,1.1c-2.5,4.8-3.9,9.9-5.2,15.1c-0.2,0.7-0.6,1.4-0.9,2.1
			c-0.1,0-0.2-0.1-0.4-0.1c0.8,4.1,1.6,8.1,2.4,12.2c0.5-2.7,0.7-5.3,1-7.9c0.1-0.8,0.3-1.1,1.2-1.1c1.4,0.1,2.7,0,4.1,0
			c0.3,0,0.8-0.3,0.9-0.5c0.3-0.8,0.4-1.7,0.7-2.6c-2.1-0.1-4.1-0.2-6.1-0.3c0.4-1.9,0.8-3.6,1.3-5.3c0.5-1.8,0.9-3.6,1.6-5.3
			c0.8-2,1.7-3.9,2.8-5.8c0.8-1.4,2.1-2.5,3.8-2.7c0.6-0.1,1.5,0.1,1.9,0.5c1.4,1.5,2.9,3,3.7,4.8c1.3,2.7,2.1,5.7,3,8.6
			c0.5,1.7,0.8,3.5,1.3,5.4c-2.2,0-4.2,0-6.2,0c0.8,3,0.8,3,3.7,3c0.6,0,1.3,0,1.9,0c0.8-0.1,1.1,0.3,1.2,1c0.3,2.9,0.6,5.7,0.8,8.6
			c0.2,2,0.3,4.1,0.4,5.9c1-0.4,1.9-0.8,2.9-1.2c-0.3-4.6-0.7-9.4-1-14.2c3,0,5.8,0,8.7,0c3.7,0.1,3.7,0.1,4.5,3.7
			c0.8,3.5,1.3,7.1,2,10.8c0.8,0,1.8,0,2.8,0c-0.3-5-1.3-9.7-2.7-14.6c1.6,0,3-0.1,4.4,0c4,0.2,3.5-0.6,5,3.5
			c1.3,3.5,2.1,7.3,3.1,11.1C89.4,40.4,90.1,40.4,90.9,40.4z M29.5,43c-1.9,0-3.7,0-5.4,0c-0.3,0-0.7,0.2-0.8,0.4
			c-0.4,0.8-0.7,1.7-1.1,2.6c2.7,0,5.3,0,8,0c-0.1-0.5-0.1-1-0.2-1.4C29.7,44.1,29.6,43.6,29.5,43z"/>
		<path d="M90.9,40.4c-0.8,0-1.5,0-1.9,0c-1-3.8-1.8-7.5-3.1-11.1c-1.5-4.2-1-3.3-5-3.5c-1.4-0.1-2.8,0-4.4,0
			c1.4,4.9,2.4,9.6,2.7,14.6c-1.1,0-2,0-2.8,0c-0.7-3.7-1.2-7.2-2-10.8c-0.8-3.7-0.9-3.7-4.5-3.7c-2.8,0-5.7,0-8.7,0
			c0.3,4.9,0.7,9.6,1,14.2c-1,0.4-1.9,0.8-2.9,1.2c-0.1-1.8-0.2-3.9-0.4-5.9c-0.2-2.9-0.6-5.7-0.8-8.6c-0.1-0.8-0.4-1.2-1.2-1
			c-0.6,0.1-1.3,0-1.9,0c-2.9,0-2.9,0-3.7-3c2,0,4,0,6.2,0c-0.4-1.9-0.7-3.7-1.3-5.4c-0.9-2.9-1.7-5.8-3-8.6
			c-0.8-1.8-2.3-3.3-3.7-4.8c-0.4-0.4-1.3-0.6-1.9-0.5c-1.7,0.2-3,1.3-3.8,2.7C42.7,8,41.8,10,41,12c-0.7,1.7-1.1,3.5-1.6,5.3
			c-0.5,1.7-0.8,3.4-1.3,5.3c2.1,0.1,4.1,0.2,6.1,0.3c-0.2,0.9-0.4,1.8-0.7,2.6c-0.1,0.3-0.6,0.5-0.9,0.5c-1.4,0.1-2.7,0.1-4.1,0
			c-0.8,0-1.1,0.3-1.2,1.1c-0.2,2.6-0.5,5.2-1,7.9c-0.8-4.1-1.6-8.1-2.4-12.2c0.1,0,0.2,0.1,0.4,0.1c0.3-0.7,0.8-1.4,0.9-2.1
			c1.3-5.2,2.7-10.4,5.2-15.1c0.1-0.3,0.2-0.6,0.4-1.1c-3.6,1.3-6.4,3.4-9.2,6c-0.4-2-0.8-3.9-1.2-5.8c-0.1-0.1-0.2-0.1-0.3-0.2
			c-0.2,3-2.5,4-4.5,5.3c-4.6,3-8.6,6.8-11.7,11.4c-0.2,0.3-0.4,0.7-0.7,1c-0.1,0.1-0.1,0.2-0.1,0.4c2.2,0,4.3,0,6.4,0
			c0.3,0,0.8-0.5,1-0.9c2.1-3.5,4.3-7,6.4-10.5c0.2-0.3,0.5-0.6,1-0.8c-3.6,8.7-7.3,17.4-10.9,26c-0.1,0-0.2-0.1-0.4-0.1
			c0.7-3.5,1.5-6.9,2.2-10.4c-2.4,0-4.8,0-7.3,0c-0.3,0-0.7,0.5-0.9,0.9c-2.4,5-3.5,10.2-3.9,15.6c3,0,6,0,8.9,0
			c0.9,0,1.2-0.3,1.6-1.1c4-9.6,8-19.1,12-28.7c0.1-0.3,0.3-0.6,0.5-1.1c1.5,7.2,2.9,14.2,4.3,21.2c1.4,7,2.9,14,4.5,21
			c2.9-11.5,5.8-23.1,8.8-34.6c0.1,0,0.2,0,0.3,0c3.5,9.2,6.9,18.4,10.5,27.8c1-1.4,1.9-2.6,2.9-3.8c0.3-0.3,0.8-0.7,1.2-0.7
			c9.5,0,19,0,28.6,0c0.1,0,0.2,0,0.5,0.1c0,1.3,0,2.6,0,4.1c-0.5,0-0.9,0-1.4,0c-8.3,0-16.6,0-25,0c-1,0-1.6,0.3-2.2,1.1
			c-1.8,2.6-3.8,5.1-5.8,7.8c-2.9-7.6-5.7-15-8.5-22.4c-0.1,0-0.2,0-0.3,0c-3.3,13.2-6.7,26.4-10,39.6c-0.1,0-0.1,0-0.2,0
			c-3.2-15.5-6.3-31-9.5-46.6c-0.1,0-0.2,0-0.3,0c-0.8,1.9-1.6,3.8-2.4,5.7c-1.9,4.5-3.8,9-5.6,13.5c-0.4,1-0.9,1.4-2,1.4
			c-3.7-0.1-7.4,0-11.3,0c0.1,1.1,0.3,2.1,0.4,3.1C7.9,54,9,58.1,10.8,62c0.4,0.8,0.8,1.2,1.8,1.1c2.1-0.1,4.3,0,6.3,0
			c-0.9-4.8-1.9-9.5-2.8-14.3c1.3,0,2.2,0,3,0c0.8,3.8,1.4,7.5,2.2,11.2c0.7,3.1,0.7,3.1,3.9,3.2c2.3,0.1,4.6,0,6.8,0
			c0.4,0,0.9,0,1.3,0c0.2,1.1,0.4,2.1,0.6,3.2c-3.4,0-6.8,0-10.2,0c2.7,7,9.4,14.7,16.4,17.3c0-0.5,0-0.9-0.1-1.3
			c-0.2-0.8-0.4-1.8-0.9-2.5c-1.4-2.3-0.5-4.5,0.3-6.9c0.5,1.5,0.8,2.8,1.4,4c1,2,2,4.1,3.4,5.8c2,2.4,4.5,2.4,6.5,0
			c1.3-1.6,2.4-3.4,3.1-5.3c1.3-3.5,2.2-7.1,3.4-11c-5.7,0-10.9,0-16.1,0c-0.1-0.3-0.1-0.4-0.1-0.4c0.6-2.8,0.6-2.9,3.5-2.9
			c4-0.1,7.9-0.1,11.9-0.1c0.8,0,1.2-0.2,1.3-1.1c0.1-1.5,0.3-3,0.5-4.5c0.1-0.5,0.2-1,0.4-1.3c0.9-1.2,1.8-2.4,2.9-3.5
			c-0.2,3.4-0.5,6.9-0.7,10.2c0.2,0.1,0.2,0.2,0.3,0.2c3.6,0,7.3,0,10.9-0.1c0.4,0,1-0.6,1.1-1c0.8-3.3,1.6-6.7,2.4-10
			c0.2-1,0.3-2.1,0.4-3.2c0.9,0,1.9,0,3,0c-0.4,4.8-1.4,9.5-2.8,14.3c2.1,0,4-0.1,5.9,0c1.6,0.1,2.5-0.6,2.9-2
			c1.1-3.5,2.1-7.1,3.1-10.7c0.2-0.5,0.2-1.1,0.3-1.7c0.8,0,1.5,0,2.6,0c-0.4,2.2-0.6,4.5-1.1,6.6c-4,16.4-14.4,26.8-30.5,31.2
			c-12,3.2-23.8,2.3-34.7-4.4c-8.9-5.5-14.8-13.5-18-23.4C3.1,47.3,3.3,35.9,8.2,24.8C13.3,13.5,22.1,6.3,33.8,2.6
			c12.4-4,24.4-3.2,35.9,3.3c7.7,4.3,13.1,10.8,16.9,18.7c2.2,4.7,3.6,9.6,4.3,14.8C91,39.6,90.9,40,90.9,40.4z M54.7,4.7
			c3,5.8,4.6,11.8,5.9,18c3.9,0,7.7,0,11.5,0C68.3,14.2,61.9,6.9,54.7,4.7z M71.7,66.5c-3.6,0-7.1,0-10.6,0c-0.3,0-0.7,0.6-0.8,0.9
			c-1.4,5.3-2.5,10.7-5.4,15.5c-0.2,0.3-0.2,0.6-0.3,0.9C59.3,83.9,69.7,73.3,71.7,66.5z M65.4,7.3c0.2,0.4,0.3,0.6,0.4,0.7
			c4.1,4.1,7,8.9,9.4,14.1c0.1,0.3,0.5,0.6,0.8,0.6c2.2,0,4.4,0,6.7,0C78.3,16,72.8,10.9,65.4,7.3z M82.4,66.3c-2.2,0-4.1,0-6,0
			c-0.9,0-1.3,0.4-1.7,1.2c-2.3,4.7-5,9.1-8.7,12.8c-0.2,0.3-0.4,0.6-0.6,0.9C72.4,77.9,77.9,72.9,82.4,66.3z M13.2,66.4
			c4.4,6.4,9.8,11.1,16.7,14.7c-0.2-0.4-0.2-0.6-0.3-0.6c-3.5-4.2-6.6-8.6-9-13.5c-0.1-0.3-0.5-0.5-0.8-0.6
			C17.7,66.4,15.6,66.4,13.2,66.4z"/>
		<path d="M29.5,43c0.1,0.6,0.3,1.2,0.4,1.7c0.1,0.4,0.1,0.9,0.2,1.4c-2.7,0-5.2,0-8,0c0.4-0.9,0.7-1.8,1.1-2.6
			c0.1-0.2,0.6-0.4,0.8-0.4C25.8,42.9,27.6,43,29.5,43z"/>
		<path class="st0" d="M54.7,4.7c7.2,2.3,13.6,9.5,17.3,18c-3.8,0-7.6,0-11.5,0C59.3,16.5,57.7,10.5,54.7,4.7z"/>
		<path class="st0" d="M71.7,66.5c-1.9,6.7-12.4,17.4-17.1,17.4c0.1-0.3,0.2-0.6,0.3-0.9c2.9-4.8,3.9-10.2,5.4-15.5
			c0.1-0.4,0.5-0.9,0.8-0.9C64.6,66.5,68.1,66.5,71.7,66.5z"/>
		<path class="st0" d="M65.4,7.3c7.4,3.6,12.9,8.7,17.3,15.4c-2.4,0-4.5,0-6.7,0c-0.3,0-0.6-0.3-0.8-0.6c-2.5-5.1-5.4-10-9.4-14.1
			C65.7,7.9,65.6,7.7,65.4,7.3z"/>
		<path class="st0" d="M82.4,66.3c-4.6,6.6-10,11.6-17.1,14.8c0.2-0.3,0.4-0.6,0.6-0.9c3.7-3.7,6.5-8.1,8.7-12.8
			c0.4-0.8,0.9-1.2,1.7-1.2C78.3,66.4,80.2,66.3,82.4,66.3z"/>
		<path class="st0" d="M13.2,66.4c2.4,0,4.5,0,6.6,0c0.3,0,0.6,0.3,0.8,0.6c2.5,4.9,5.5,9.4,9,13.5c0.1,0.1,0.1,0.2,0.3,0.6
			C23,77.6,17.6,72.8,13.2,66.4z"/>
	</g>
</g>
</svg>