<?xml version="1.0" encoding="utf-8"?>
<!-- Generator: Adobe Illustrator 26.0.3, SVG Export Plug-In . SVG Version: 6.00 Build 0)  -->
<svg version="1.1" id="Layer_1" xmlns="http://www.w3.org/2000/svg" xmlns:xlink="http://www.w3.org/1999/xlink" x="0px" y="0px"
	 viewBox="0 0 100 100" style="enable-background:new 0 0 100 100;" xml:space="preserve">
<g>
	<path fill="#ccc" d="M53.6,0c-0.2,0-0.4,0-0.6,0c0,0,0,0,0,0c0.6,0,1.2,0.1,1.9,0.1c4.7,0.4,9.4,1.4,13.8,3.1c5.1,2,9.7,4.8,13.8,8.5
		c5.3,4.7,9.2,10.4,12.1,16.8c2,4.4,3.4,9.1,4.1,13.9c0.2,1,0.3,1.9,0.4,2.9c0,0.1,0,0.2,0,0.4c-0.5,0-0.9,0-1.3,0
		c-0.4,0-0.9,0-1.4,0c-0.1-0.5-0.1-1-0.2-1.5c-0.6-4-1.5-8-3.1-11.7c-0.4-1.1-1-2-1.6-3.1c0-0.1-0.2-0.1-0.3-0.2
		c-1-0.1-1.9-0.2-2.9-0.2c-1.8,0-3.7,0-5.5,0c-0.1,0-0.1,0-0.3,0c1.7,5.4,2.7,10.9,3.1,16.6c-1.2,0-2.3,0-3.5,0
		c-0.1-0.8-0.1-1.6-0.2-2.4c-0.5-4.2-1.2-8.3-2.5-12.3c-0.2-0.5-0.4-1.1-0.6-1.6c0-0.1-0.2-0.2-0.4-0.2c-0.6-0.1-1.2-0.1-1.8-0.1
		c-3.4,0-6.8,0-10.3,0c-0.5,0-0.9,0-1.3,0c0.4,5.6,0.8,11.1,1.2,16.6c-0.6,0-1.2,0-1.8,0c-0.2,0-0.4,0.1-0.5,0.2
		c-0.4,0.5-0.7,1-1.1,1.5c-0.1-6.2-0.6-12.3-1.5-18.4c-0.2,0-0.4,0-0.6,0c-1.9,0-3.7,0-5.6,0c-0.1,0-0.2-0.1-0.3-0.2
		c-0.4-1.1-0.8-2.1-1.2-3.2c0,0,0-0.1,0-0.1c2.4,0,4.7,0,7.1,0c0-0.1,0-0.1,0-0.2c-0.7-2.9-1.4-5.8-2.1-8.7c-0.7-2.5-1.5-5-2.8-7.3
		c-1.2-2.2-2.7-4.1-4.6-5.7c-0.1-0.1-0.4-0.2-0.5-0.2c-1.8-0.1-3.2,0.6-4.5,1.9c-0.9,0.9-1.7,2-2.3,3.2c-1.3,2.4-2.1,4.9-2.8,7.5
		C40.5,19,39.8,22,39,24.9c-0.1,0.4-0.1,0.4,0.3,0.4c1.1,0.1,2.1,0.2,3.2,0.2c1.1,0,2.2,0,3.3,0.1c0.1,0,0.1,0,0.2,0
		c-0.2,0.6-0.3,1.3-0.5,1.9c-0.1,0.5-0.3,0.9-0.4,1.4c0,0.2-0.2,0.2-0.3,0.2c-1.7,0-3.4,0-5.1,0.1c-0.4,0-0.9,0-1.4,0
		c-0.4,3.7-0.7,7.3-1,10.9c0,0,0,0,0,0c-1-5-1.9-9.9-2.9-14.9c0.4,0,0.7,0,1.1,0c0.2-0.8,0.4-1.5,0.5-2.2c0.9-3.8,1.8-7.5,3.2-11.1
		c0.6-1.6,1.4-3.1,2-4.7c0.3-0.7,0.6-1.3,0.9-2c0.1-0.1,0.1-0.3,0.1-0.5c-4.1,1.5-7.5,4-10.5,7c-0.5-2.3-0.9-4.6-1.4-7
		c-0.1,0.1-0.1,0.2-0.1,0.3c-0.5,1.2-1,2.3-1.5,3.5c0,0.1-0.1,0.2-0.2,0.3c-2.7,1.4-5.2,3.2-7.6,5.1c-3.7,3-6.9,6.4-9.6,10.3
		c-0.3,0.4-0.6,0.9-0.9,1.4c0.3,0,0.5,0,0.7,0c1.6,0,3.2,0,4.8,0c0.7,0,1.4-0.1,2.1-0.1c0.4,0,0.7-0.2,0.9-0.6c1.5-3,3.1-6,4.9-8.9
		c1.1-1.7,2.3-3.4,3.7-4.9c0.1-0.1,0.2-0.2,0.4-0.3C23.3,21.2,18.9,31.6,14.6,42c0,0,0,0-0.1,0c0-0.3,0.1-0.6,0.1-0.9
		c0.6-3.8,1.3-7.5,2.4-11.2c0-0.1,0.1-0.2,0.1-0.3c0.1-0.3,0.1-0.4-0.3-0.4c-0.3,0-0.6-0.1-1-0.1c-2,0-4,0-6,0c-0.3,0-0.5,0-0.8,0.1
		c-0.6,0.1-1.1,0.4-1.4,1c-0.4,0.9-0.8,1.8-1.2,2.7c-1.4,3.3-2.2,6.7-2.7,10.2c-0.1,0.8-0.2,1.6-0.4,2.4c-0.2,1-0.1,2.1-0.4,3.1
		c0.2,0,0.2,0,0.3-0.5c0.1,0,0.2,0,0.3,0c3.5,0,7.1,0,10.6,0c0.2,0,0.3-0.1,0.4-0.3c4.8-11.5,9.6-23,14.5-34.5
		c0-0.1,0.1-0.2,0.2-0.3c3.3,16.2,6.6,32.4,9.9,48.6c3.4-13.5,6.8-27,10.2-40.4c0,0,0,0,0.1,0c4,10.6,8,21.3,12.1,32
		c0.1-0.1,0.2-0.2,0.2-0.3c1.1-1.5,2.3-3,3.4-4.6c0.1-0.1,0.2-0.2,0.4-0.2c11.2,0,22.4,0,33.5,0c0.1,0,0.2,0,0.3,0
		c0,1.6,0,3.2,0,4.8c-0.1,0-0.3,0-0.4,0c-10.3,0-20.6,0-30.9,0c-0.3,0-0.5,0.1-0.6,0.3c-2.4,3.2-4.8,6.4-7.1,9.5
		c-0.1,0.1-0.1,0.2-0.2,0.3c-3.3-8.7-6.5-17.3-9.8-26c-3.9,15.4-7.8,30.7-11.6,46c0,0,0,0-0.1,0c-3.7-17.9-7.3-35.9-11-53.8
		c0,0,0,0-0.1,0c-0.2,0.5-0.4,1-0.6,1.5c-3.1,7.3-6.2,14.6-9.2,22c-0.1,0.2-0.2,0.3-0.4,0.3c-4.6,0-9.1,0-13.7,0c-0.1,0-0.2,0-0.4,0
		c0,0.8,0,1.6,0,2.3c0.3,0,0.3,0.2,0.3,0.4c0.6,4.3,1.7,8.6,3.3,12.6c0.4,1.1,1,2.1,1.5,3.2c0,0.1,0.2,0.2,0.3,0.2
		c2.2,0,4.3,0.1,6.5,0.1c0.6,0,1.3-0.1,1.9-0.1c0.1,0,0.2-0.1,0.3-0.1c-1.8-5.3-2.8-10.7-3.2-16.3c1.1,0,2.3,0,3.4,0
		c0.1,0.8,0.2,1.6,0.3,2.4c0.6,4.1,1.3,8.1,2.5,12c0.2,0.5,0.4,1,0.6,1.5c0.1,0.3,0.3,0.4,0.6,0.4c0.8,0,1.7,0.1,2.5,0.1
		c3.1,0,6.1,0,9.2,0c0.1,0,0.2,0,0.3,0c0.2,1.2,0.5,2.4,0.7,3.7c-3.9,0-7.9,0-11.8,0c0,0.1,0,0.2,0.1,0.2c2.2,4.6,4.9,8.8,8.4,12.4
		c2.6,2.7,5.5,4.9,9,6.5c0.3,0.1,0.5,0.3,0.8,0.5c0.4,0.2,0.6,0,0.6-0.4c0-0.5-0.1-0.9-0.3-1.4c-0.6-1.7-1.2-3.3-1.8-4.9
		c-0.1-0.3-0.1-0.5,0-0.7c0.4-1.5,0.8-3.1,1.2-4.6c0-0.1,0.1-0.2,0.1-0.3c0.1,0.2,0.1,0.3,0.1,0.4c0.8,2.8,1.7,5.5,3.1,8.1
		c0.8,1.5,1.7,2.8,3,3.9c0.9,0.8,2,1.2,3.2,1.2c1-0.1,1.8-0.5,2.6-1.1c1.3-1.1,2.3-2.4,3.1-3.9c1.4-2.6,2.4-5.4,3.2-8.2
		c0.6-2.4,1.1-4.8,1.7-7.3c-0.4,0-0.7-0.1-1.1-0.1c-1.9,0-3.8-0.1-5.7-0.1c-1.7,0-3.4,0-5.1,0c-2,0-4,0-6,0c-0.1,0-0.2,0-0.4,0
		c0-0.1,0-0.2,0.1-0.3c0.3-1,0.6-2.1,0.8-3.1c0.1-0.2,0.1-0.3,0.3-0.3c3.8,0,7.5,0,11.3,0c2,0,4.1,0,6.1,0c0.1,0,0.1,0,0.2,0
		c0.1-0.7,0.2-1.4,0.3-2.2c0.2-1.7,0.4-3.3,0.5-5c0-0.1,0.1-0.3,0.1-0.4c1.1-1.5,2.3-3.1,3.5-4.6c0,0,0.1-0.1,0.1-0.2
		c-0.3,4.2-0.6,8.3-0.9,12.5c0.2,0,0.3,0,0.4,0c3.7,0,7.4,0,11.1,0c0.5,0,1-0.1,1.5-0.1c0.3,0,0.5-0.2,0.7-0.5
		c0.8-1.8,1.3-3.7,1.7-5.6c0.6-2.5,1.1-5,1.4-7.6c0.1-0.9,0.2-1.7,0.3-2.6c1.1,0,2.3,0,3.4,0c-0.5,5.6-1.6,11.1-3.3,16.4
		c0.1,0,0.2,0,0.2,0c2.4,0,4.8,0,7.2-0.1c0.3,0,0.6-0.1,0.9-0.1c0.5,0,0.7-0.2,1-0.6c0.7-1.2,1.3-2.5,1.7-3.8
		c1.1-3.1,1.9-6.3,2.6-9.6c0.2-0.8,0.3-1.6,0.4-2.4c0.9,0,1.9,0,2.9,0c-0.1,0.6-0.1,1.2-0.2,1.8c-0.4,3.5-1.1,7-2.2,10.4
		c-2,6.2-5.2,11.7-9.5,16.5c-3.8,4.2-8.2,7.6-13.2,10.2c-4.1,2.1-8.4,3.7-12.9,4.8c-2.3,0.6-4.7,0.9-7,1.1c-0.1,0-0.3,0-0.4,0
		c-2.5,0-5.1,0-7.6,0c-1.7,0-3.5-0.2-5.2-0.4c-3.3-0.5-6.4-1.3-9.5-2.5c-4.9-1.9-9.4-4.5-13.4-7.9c-6.4-5.5-11-12.3-14-20.1
		c-1.5-3.8-2.5-7.7-3.1-11.7c-0.6-3.7-0.8-7.4-0.6-11.1C0.8,40.5,2,35.1,4.1,29.8c2.6-6.5,6.4-12.1,11.6-16.8c5-4.5,10.7-7.8,17-10
		c3.1-1.1,6.3-1.9,9.6-2.4c1.8-0.3,3.6-0.4,5.4-0.5c0.2,0,0.3,0,0.5-0.1c-0.2,0-0.4,0-0.6,0C30.3,0,71.5,0,53.6,0z M57.8,4.9
		C57.8,4.9,57.7,4.9,57.8,4.9c0.1,0.3,0.2,0.5,0.3,0.7c1.7,3.2,2.9,6.5,4,10c1,3.2,1.8,6.4,2.4,9.7c0.1,0.4,0.1,0.4,0.5,0.4
		c4.1,0,8.3,0,12.4,0c0.1,0,0.2,0,0.4,0c-0.2-0.5-0.4-0.9-0.6-1.3c-1.9-3.8-4.2-7.5-7-10.7C68,11.2,65.7,9,62.9,7.3
		c-1.4-0.8-2.9-1.5-4.3-2.2C58.3,5,58,5,57.8,4.9z M77.3,75.4C77.2,75.4,77.2,75.4,77.3,75.4c-0.8-0.1-1.5-0.1-2.2-0.1
		c-2.3,0-4.5,0-6.8,0c-1.2,0-2.5,0.1-3.7,0.1c-0.2,0-0.3,0.1-0.3,0.3c-0.9,3.9-1.9,7.8-3.2,11.6c-0.7,2-1.4,4-2.6,5.9
		c-0.3,0.4-0.5,0.9-0.7,1.4c-0.1,0.2-0.1,0.3-0.2,0.5c0,0.3,0.1,0.4,0.3,0.3c0.2,0,0.3-0.1,0.5-0.2c1.3-0.7,2.6-1.3,3.8-2
		c1.9-1.1,3.6-2.4,5.2-3.9c3.8-3.7,6.9-7.9,9.2-12.7C76.9,76.3,77.1,75.9,77.3,75.4z M70.1,8.1C70.1,8.2,70,8.2,70.1,8.1
		c0,0.2,0.1,0.3,0.2,0.4c0.3,0.3,0.5,0.6,0.8,0.9c2.2,2.2,4,4.6,5.7,7.2c1.7,2.7,3.2,5.6,4.6,8.5c0.1,0.2,0.2,0.3,0.5,0.3
		c2.3,0,4.6,0,6.9,0.1c0.3,0,0.7,0,1.1,0c0-0.1-0.1-0.1-0.1-0.2c-1.6-2.4-3.4-4.8-5.4-6.9c-2.9-3.1-6.2-5.8-9.8-8
		c-1.3-0.8-2.6-1.4-3.9-2.2C70.4,8.2,70.3,8.2,70.1,8.1z M89.2,75.4c0,0,0-0.1,0-0.1c-0.2,0-0.5-0.1-0.7-0.1c-1.6,0-3.2-0.1-4.7,0
		c-0.7,0-1.4,0.1-2.1,0.1c-0.3,0-0.5,0.2-0.7,0.5c-1,1.9-2,3.8-3,5.6c-1.6,2.9-3.5,5.6-5.9,8.1c-0.8,0.8-1.5,1.7-2.2,2.5
		c-0.1,0.1-0.1,0.2-0.2,0.3c0,0,0.1,0.1,0.1,0.1C77.9,88.5,84.2,82.7,89.2,75.4z M29.8,92.1c0,0,0-0.1,0.1-0.1
		c0-0.1-0.1-0.1-0.1-0.2c-1.3-1.6-2.7-3.2-3.9-4.8c-2.6-3.5-4.9-7.2-6.8-11.1c-0.2-0.5-0.5-0.6-1-0.6c-1.9,0-3.9-0.1-5.8-0.1
		c-0.5,0-0.9,0-1.4,0.1c0,0,0,0.1-0.1,0.1c0.5,0.7,0.9,1.4,1.4,2.1c1.7,2.3,3.7,4.4,5.8,6.3c2.8,2.6,5.7,5,9.1,6.9
		C27.8,91.2,28.8,91.6,29.8,92.1z"/>
	<path d="M29.8,52.2c-3,0-6.1,0-9.2,0c0.1-0.3,0.2-0.5,0.3-0.7c0.4-0.9,0.7-1.8,1.1-2.6c0.1-0.2,0.1-0.2,0.3-0.2c2.2,0,4.3,0,6.5,0
		c0.2,0,0.3,0.1,0.4,0.3c0.2,1,0.4,2.1,0.6,3.1C29.8,52,29.8,52.1,29.8,52.2z"/>
</g>
</svg>
