<?xml version="1.0" encoding="utf-8"?>
<!-- Generator: Adobe Illustrator 25.2.3, SVG Export Plug-In . SVG Version: 6.00 Build 0)  -->
<svg version="1.1" id="Layer_1" xmlns="http://www.w3.org/2000/svg" xmlns:xlink="http://www.w3.org/1999/xlink" x="0px" y="0px"
	 viewBox="0 0 15 16" style="enable-background:new 0 0 15 16;" xml:space="preserve">
<style type="text/css">
	.st0{fill:#EEEEEE;}
</style>
<path class="st0" d="M7.5,0c1.1,0,2,0.9,2,2v0.3c2.3,0.8,4,2,4,4.7v3.9l0.7,0.5c0.5,0.3,0.7,0.9,0.8,1.4V13c0,0.5-0.4,0.9-0.9,1
	L14,14H9.9c-0.2,1.1-1.2,2-2.5,2S5.2,15.1,5,14H1c-0.5,0-0.9-0.4-1-0.9V13c0-0.6,0.2-1.1,0.7-1.5l0.1-0.1l0.7-0.5V7
	c0-2.6,1.7-3.8,4-4.7V2C5.5,0.9,6.4,0,7.5,0z M8.9,14H6c0.2,0.6,0.8,1,1.4,1S8.7,14.6,8.9,14z M7.5,1c-0.5,0-1,0.4-1,0.9V2v1
	L5.8,3.3C3.9,4,2.6,4.7,2.5,6.8V7v4.4l-1,0.8l-0.1,0.1C1.1,12.4,1,12.6,1,12.8v0.1V13h12.9H14v-0.1c0-0.2-0.1-0.5-0.3-0.6l-0.1-0.1
	l-1.1-0.8V7c0-2.1-1.3-2.9-3.1-3.6L9.1,3.3L8.5,3V2C8.5,1.4,8,1,7.5,1z"/>
</svg>
