<svg xmlns="http://www.w3.org/2000/svg" width="17" height="17" viewBox="0 0 17 17">
    <path fill="currentColor" d="M8.501 8.688c-1.756 0-3.185-1.5-3.185-3.344C5.316 3.5 6.745 2 8.501 2s3.185 1.5 3.185 3.344c0 1.844-1.429 3.344-3.185 3.344zm0-6.08c-1.437 0-2.606 1.228-2.606 2.736 0 1.508 1.17 2.736 2.606 2.736 1.437 0 2.606-1.228 2.606-2.736 0-1.508-1.17-2.736-2.606-2.736zM13.133 14.16H3.87c-.48 0-.869-.41-.869-.912 0-.041.008-1.024.71-2.006.408-.572.966-1.026 1.66-1.35.848-.395 1.902-.596 3.131-.596 1.23 0 2.283.2 3.13.596.695.325 1.253.778 1.662 1.35.7.982.709 1.965.709 2.006 0 .503-.39.912-.869.912zM8.501 9.904c-2.02 0-3.51.58-4.309 1.676-.6.821-.612 1.66-.613 1.67 0 .166.13.302.29.302h9.264c.16 0 .29-.136.29-.304a3.18 3.18 0 0 0-.613-1.668c-.8-1.097-2.29-1.676-4.309-1.676z"/>
</svg>
