<?xml version="1.0" encoding="utf-8"?>
<!-- Generator: Adobe Illustrator 25.2.3, SVG Export Plug-In . SVG Version: 6.00 Build 0)  -->
<svg version="1.1" id="Layer_1" xmlns="http://www.w3.org/2000/svg" xmlns:xlink="http://www.w3.org/1999/xlink" x="0px" y="0px"
	 viewBox="0 0 14 20" style="enable-background:new 0 0 14 20;" xml:space="preserve">
<style type="text/css">
	.st0{fill-rule:evenodd;clip-rule:evenodd;fill:#EEEEEE;}
</style>
<path class="st0" d="M7,0c3.9,0,7,3.1,7,7c0,1.2-0.3,2.3-0.8,3.3l-0.1,0.2l-5.2,9C7.6,20,7,20.1,6.5,19.9c-0.2-0.1-0.3-0.2-0.4-0.4
	l-5.2-9C0.3,9.4,0,8.2,0,7C0,3.1,3.1,0,7,0z M7,1C3.7,1,1,3.7,1,7c0,1,0.2,1.9,0.7,2.7L1.8,10L7,19l5.2-9l0.1-0.1C12.7,9,13,8,13,7
	C13,3.7,10.3,1,7,1z M7,4c1.7,0,3,1.3,3,3s-1.3,3-3,3S4,8.6,4,7S5.3,4,7,4z M7,5C5.9,5,5,5.9,5,7s0.9,2,2,2s2-0.9,2-2S8.1,5,7,5z"/>
</svg>
