<?xml version="1.0" encoding="utf-8"?>
<!-- Generator: Adobe Illustrator 25.2.3, SVG Export Plug-In . SVG Version: 6.00 Build 0)  -->
<svg version="1.1" id="Layer_1" xmlns="http://www.w3.org/2000/svg" xmlns:xlink="http://www.w3.org/1999/xlink" x="0px" y="0px"
	 viewBox="0 0 20 20" style="enable-background:new 0 0 20 20;" xml:space="preserve">
<style type="text/css">
	.st0{fill-rule:evenodd;clip-rule:evenodd;fill:#EEEEEE;}
</style>
<path class="st0" d="M15,0c0.6,0,1,0.4,1,1v4h3c0.6,0,1,0.4,1,1v9c0,0.6-0.4,1-1,1h-3v3c0,0.6-0.4,1-1,1H5c-0.6,0-1-0.4-1-1v-3H1
	c-0.6,0-1-0.4-1-1V6c0-0.6,0.4-1,1-1h3V1c0-0.6,0.4-1,1-1H15z M15,13H5v6h10V13z M13.5,16c0.3,0,0.5,0.2,0.5,0.5
	c0,0.2-0.2,0.4-0.4,0.5h-0.1h-7C6.2,17,6,16.8,6,16.5c0-0.2,0.2-0.4,0.4-0.5h0.1H13.5z M19,6H1v9h3v-2H2.5C2.2,13,2,12.8,2,12.5
	c0-0.2,0.2-0.4,0.4-0.5h0.1h15c0.3,0,0.5,0.2,0.5,0.5c0,0.2-0.2,0.4-0.4,0.5h-0.1H16v2h3V6z M13.5,14c0.3,0,0.5,0.2,0.5,0.5
	c0,0.2-0.2,0.4-0.4,0.5h-0.1h-7C6.2,15,6,14.8,6,14.5c0-0.2,0.2-0.4,0.4-0.5h0.1H13.5z M17,7c0.6,0,1,0.4,1,1s-0.4,1-1,1s-1-0.4-1-1
	S16.4,7,17,7z M15,1H5v4h10V1z"/>
</svg>
