<?xml version="1.0" encoding="utf-8"?>
<!-- Generator: Adobe Illustrator 25.2.3, SVG Export Plug-In . SVG Version: 6.00 Build 0)  -->
<svg version="1.1" id="Layer_1" xmlns="http://www.w3.org/2000/svg" xmlns:xlink="http://www.w3.org/1999/xlink" x="0px" y="0px"
	 viewBox="0 0 20 20" style="enable-background:new 0 0 20 20;" xml:space="preserve">
<style type="text/css">
	.st0{fill-rule:evenodd;clip-rule:evenodd;fill:#EEEEEE;}
</style>
<g id="Icons_x2F_UI_x2F_Profile">
	<path id="Fill" class="st0" d="M10,0c5.5,0,10,4.5,10,10s-4.5,10-10,10S0,15.5,0,10S4.5,0,10,0z M3.1,15.5l-0.2,0.1
		C4.6,17.7,7.1,19,10,19s5.4-1.3,7-3.4C12.4,13.4,7.7,13.4,3.1,15.5z M10,1c-5,0-9,4-9,9c0,1.7,0.5,3.4,1.4,4.7
		c4.9-2.3,9.9-2.4,14.9-0.2l0.4,0.2c0.9-1.4,1.4-3,1.4-4.8C19,5,15,1,10,1z M10,4c2.2,0,4,1.8,4,4s-1.8,4-4,4s-4-1.8-4-4S7.8,4,10,4
		z M10,5C8.3,5,7,6.3,7,8s1.3,3,3,3s3-1.3,3-3S11.7,5,10,5z"/>
</g>
</svg>
