<?xml version="1.0" encoding="utf-8"?>
<!-- Generator: Adobe Illustrator 25.2.3, SVG Export Plug-In . SVG Version: 6.00 Build 0)  -->
<svg version="1.1" id="Layer_1" xmlns="http://www.w3.org/2000/svg" xmlns:xlink="http://www.w3.org/1999/xlink" x="0px" y="0px"
	 viewBox="0 0 19 18.5" style="enable-background:new 0 0 19 18.5;" xml:space="preserve">
<style type="text/css">
	.st0{fill-rule:evenodd;clip-rule:evenodd;fill:none;stroke:#EEEEEE;stroke-miterlimit:10;}
	.st1{fill-rule:evenodd;clip-rule:evenodd;fill:#EEEEEE;}
	.st2{fill-rule:evenodd;clip-rule:evenodd;fill:#FFFFFF;}
</style>
<path class="st0" d="M0.7,5.1c0.4,0,0.5,0,1,0c5.1,0,10.1,0,15.2,0c0.5,0,0.8,0,1.3,0c0.3,0,0.1,0.7,0,1L16.4,13l-0.2,0.7
	c-0.3,0-0.6,0-0.9,0c-4,0-8,0-12.1,0c-0.2,0-0.4,0-0.6,0c-0.1-0.3-0.1-0.5-0.2-0.8c-0.6-2.3-1.2-4.6-1.8-6.9
	C0.5,5.8,0.3,5.1,0.7,5.1z"/>
<g>
	<path class="st1" d="M16,14.6v0.1c0,0.2-0.2,0.5-0.4,0.5h-0.1h-2.1c0.6,0.2,1.1,0.8,1.1,1.4c0,0.8-0.7,1.5-1.5,1.5
		s-1.5-0.7-1.5-1.5c0-0.7,0.4-1.2,1.1-1.4H6.5c0.5,0.2,1,0.8,1,1.4c0,0.8-0.7,1.5-1.5,1.5s-1.5-0.7-1.5-1.5c0-0.7,0.4-1.2,1.1-1.4
		H3.5c-0.2,0-0.4-0.1-0.5-0.3v-0.3"/>
	<circle class="st2" cx="5.9" cy="16.6" r="0.5"/>
	<circle class="st2" cx="13" cy="16.6" r="0.5"/>
</g>
<polyline class="st1" points="1.4,4.2 3.8,2.5 5.9,3.6 9.4,0.5 12.9,3.5 15.3,2.3 17.5,4.2 "/>
</svg>
