<svg version="1.1" id="Layer_1" xmlns="http://www.w3.org/2000/svg" xmlns:xlink="http://www.w3.org/1999/xlink" x="0px" y="0px"
	 viewBox="0 0 19.7 20.7" width="20" height="20">
<g>
	<g id="icon-111-search">
		<path id="search" style="fill-rule:evenodd;clip-rule:evenodd;fill:#929292;" d="M12.7,14.7c-1.3,0.9-2.9,1.5-4.7,1.5C3.6,16.2,0,12.6,0,8.1S3.6,0,8.1,0s8.1,3.6,8.1,8.1
			c0,2.2-0.9,4.3-2.4,5.7l5.7,5.7c0.3,0.3,0.3,0.7,0,0.9c-0.3,0.3-0.7,0.3-0.9,0L12.7,14.7L12.7,14.7z M8.1,14.5
			c3.5,0,6.4-2.9,6.4-6.4s-2.9-6.4-6.4-6.4S1.7,4.5,1.7,8.1S4.5,14.5,8.1,14.5L8.1,14.5z"/>
	</g>
</g>
</svg>
