<?xml version="1.0" encoding="utf-8"?>
<!-- Generator: Adobe Illustrator 25.2.3, SVG Export Plug-In . SVG Version: 6.00 Build 0)  -->
<svg version="1.1" id="Layer_1" xmlns="http://www.w3.org/2000/svg" xmlns:xlink="http://www.w3.org/1999/xlink" x="0px" y="0px"
	 viewBox="0 0 21.8 23.8" style="enable-background:new 0 0 21.8 23.8;" xml:space="preserve">
<style type="text/css">
	.st0{fill-rule:evenodd;clip-rule:evenodd;fill:#EEEEEE;}
</style>
<path class="st0" d="M12.1,0c0.9,0,1.6,0.7,1.7,1.6v0.1v1.6c1,0.3,1.9,0.9,2.7,1.5L16.8,5l1.4-0.8C19,3.8,19.9,4,20.4,4.7l0.1,0.1
	L21.6,7c0.4,0.8,0.2,1.8-0.5,2.3L21,9.4l-1.4,0.8c0.1,0.6,0.2,1.2,0.2,1.8c0,0.5,0,0.9-0.1,1.4l-0.1,0.3l1.4,0.8
	c0.8,0.4,1,1.4,0.7,2.2l-0.1,0.1l-1.2,2.1c-0.2,0.4-0.6,0.7-1,0.8c-0.1,0-0.3,0.1-0.4,0.1c-0.2,0-0.5-0.1-0.7-0.1l-0.2-0.1l-1.4-0.8
	c-0.8,0.7-1.7,1.3-2.6,1.6l-0.3,0.1v1.6c0,0.9-0.7,1.6-1.6,1.7h-0.1H9.7c-0.9,0-1.6-0.7-1.7-1.6v-0.1v-1.6c-1-0.3-1.9-0.9-2.7-1.5
	L5,18.8l-1.4,0.8c-0.3,0.2-0.5,0.2-0.8,0.2c-0.1,0-0.3,0-0.4-0.1C2,19.6,1.7,19.4,1.5,19l-0.1-0.1l-1.2-2.1C-0.2,16,0,15,0.7,14.5
	l0.1-0.1l1.4-0.8C2.1,13.1,2,12.5,2,11.9c0-0.5,0-0.9,0.1-1.4l0.1-0.3L0.8,9.4C0,9-0.2,8,0.1,7.2L0.2,7l1.2-2.1
	c0.4-0.8,1.4-1.1,2.2-0.7l0.1,0.1l1.4,0.8c0.8-0.7,1.7-1.3,2.6-1.6L8,3.4V1.7C8,0.8,8.7,0.1,9.6,0h0.1H12.1z M12,2H9.8
	C9.7,2,9.7,2,9.6,2.1l0,0V4v0.1v0.1c0,0.1,0,0.1,0,0.2v0.1L9.5,4.6L9.4,4.8L9.3,4.9H9.2L9.1,5C7.9,5.3,6.8,5.9,6,6.8L5.9,6.9L5.7,7
	H5.6H5.5C5.4,7,5.4,7,5.3,7H5.2L5.1,6.9L5,6.8l-1.6-1c-0.1,0-0.1,0-0.2,0l0,0L2,8c0,0,0,0.1,0,0.2l0,0l1.6,1c0.1,0,0.1,0.1,0.2,0.1
	C4,9.4,4.2,9.6,4.2,9.8c0,0.1,0,0.2,0,0.3C4,10.7,4,11.3,4,11.9c0,0.5,0.1,1,0.2,1.5l0.1,0.3v0.1v0.1V14v0.1c0,0.1-0.1,0.3-0.2,0.4
	L4,14.6l0,0l-0.1,0.1l-0.1,0.1l-1.6,1c-0.2-0.1-0.2,0-0.2,0l0,0l1.1,2C3.2,18,3.3,18,3.3,18l0,0L5,17l0.1-0.1l0.1-0.1
	c0.2-0.1,0.5-0.1,0.7,0.1L6,17c0.8,0.8,1.8,1.4,2.8,1.8l0.3,0.1h0.1h0.1c0.1,0.1,0.2,0.2,0.3,0.3v0.1l0,0v0.1l0,0v0.1v0.1v1.9
	c0,0.1,0.1,0.2,0.1,0.2l0,0H12c0.1,0,0.1-0.1,0.2-0.1l0,0v-1.9v-0.1v-0.1v-0.1v-0.1c0.1-0.2,0.2-0.3,0.3-0.4l0.1-0.1l0,0
	c1.1-0.3,2.1-0.9,2.9-1.6l0.2-0.2c0.2-0.2,0.4-0.3,0.7-0.2h0.1l0.1,0.1l0.1,0.1l1.6,1c0.1,0,0.1,0,0.1,0s0,0,0.1,0l0,0l1.1-2
	c0-0.1,0-0.2,0-0.2l0,0l-1.6-1l-0.1-0.1l-0.1-0.1l0,0l-0.1-0.1c-0.1-0.1-0.1-0.2-0.1-0.3v-0.1c0-0.1,0-0.1,0-0.1v-0.1v-0.1
	c0.2-0.6,0.2-1.2,0.2-1.8c0-0.5-0.1-1-0.2-1.5l-0.1-0.3c0-0.1,0-0.2,0-0.3c0-0.2,0.1-0.4,0.3-0.5l0.1-0.1L18,9.2l1.6-1
	c0.1,0,0.1-0.1,0.1-0.2l0,0l-1.1-2c0-0.1-0.1-0.1-0.2-0.1l0,0l-1.6,1c-0.1,0-0.2,0.1-0.2,0.1l0,0h-0.1h-0.1l0,0c-0.1,0-0.1,0-0.2,0
	h-0.1C16,7,16,6.9,15.9,6.9l-0.1-0.1l-0.2-0.2C14.9,5.9,14,5.4,13,5h-0.2l0,0h-0.1l-0.1-0.1l0,0l-0.1-0.1l0,0V4.7l-0.1-0.1V4.5V4.4
	V4.3V4.2v-2C12.2,2.1,12.2,2,12,2L12,2z M10.9,7c2.7,0,5,2.2,5,5s-2.2,5-5,5s-5-2.2-5-5S8.2,7,10.9,7z M10.9,8.9c-1.6,0-3,1.3-3,3
	s1.3,3,3,3s3-1.3,3-3S12.6,8.9,10.9,8.9z"/>
</svg>
