<?xml version="1.0" encoding="utf-8"?>
<!-- Generator: Adobe Illustrator 25.2.3, SVG Export Plug-In . SVG Version: 6.00 Build 0)  -->
<svg version="1.1" id="Layer_1" xmlns="http://www.w3.org/2000/svg" xmlns:xlink="http://www.w3.org/1999/xlink" x="0px" y="0px"
	 viewBox="0 0 14.9 11" style="enable-background:new 0 0 14.9 11;" xml:space="preserve">
<style type="text/css">
	.st0{fill:#EEEEEE;}
</style>
<g id="Icons_x2F_UI_x2F_Shipping">
	<path id="Combined-Shape" class="st0" d="M11,3h2.3c0.4,0,0.7,0.2,0.9,0.6l0.7,1.5V8c0,0.6-0.4,1-1,1h-2.1c0.1,0.2,0.1,0.3,0.1,0.5
		c0,0.8-0.7,1.5-1.5,1.5s-1.5-0.7-1.5-1.5c0-0.2,0-0.3,0.1-0.5H3.8c0.1,0.2,0.1,0.3,0.1,0.5c0,0.8-0.7,1.5-1.5,1.5s-1.5-0.7-1.5-1.5
		c0-0.2,0-0.3,0.1-0.5l0,0C0.4,9,0,8.6,0,8V7.9V0.8C0.1,0.4,0.7,0,1.2,0h8.6C10.4,0,11,0.4,11,1 M2.4,9C2.1,9,1.9,9.2,1.9,9.5
		S2.1,10,2.4,10s0.5-0.2,0.5-0.5S2.7,9,2.4,9z M10.4,9c-0.3,0-0.5,0.2-0.5,0.5s0.2,0.5,0.5,0.5s0.5-0.2,0.5-0.5S10.7,9,10.4,9z
		 M11,6v2h2.9V5.3L13.3,4H11v1 M10,1H1v7h9V1z"/>
</g>
</svg>
