<?xml version="1.0" encoding="UTF-8"?>
<svg viewBox="0 0 13 13" xml:space="preserve" xmlns="http://www.w3.org/2000/svg">
<style type="text/css">
	.st0{fill-rule:evenodd;clip-rule:evenodd;fill:#cccccc;}
</style>
<path class="st0" d="M9.3,0.8C8.7,0.8,8.1,1.4,8.1,2s0.5,1.2,1.2,1.2s1.2-0.5,1.2-1.2S10,0.8,9.3,0.8z M7.3,1.6  C7.6,0.5,8.6-0.2,9.7,0c0.8,0.2,1.4,0.8,1.6,1.6H13v0.8h-1.7C11.1,3.5,10,4.2,8.9,4C8.1,3.9,7.5,3.2,7.3,2.4H0V1.6H7.3z M3.7,4.9  C3,4.9,2.4,5.4,2.4,6.1S3,7.3,3.7,7.3s1.2-0.5,1.2-1.2S4.3,4.9,3.7,4.9z M1.7,5.7C1.9,4.6,3,3.9,4.1,4.1c0.8,0.2,1.4,0.8,1.6,1.6H13  v0.8H5.6C5.4,7.6,4.3,8.3,3.2,8.1C2.4,7.9,1.8,7.3,1.7,6.5H0V5.7H1.7z M9.3,8.9c-0.7,0-1.2,0.5-1.2,1.2c0,0.7,0.5,1.2,1.2,1.2  s1.2-0.5,1.2-1.2C10.5,9.5,10,8.9,9.3,8.9z M7.3,9.7c0.2-1.1,1.3-1.8,2.4-1.6c0.8,0.2,1.4,0.8,1.6,1.6H13v0.8h-1.7  c-0.2,1.1-1.3,1.8-2.4,1.6c-0.8-0.2-1.4-0.8-1.6-1.6H0V9.7H7.3z"/>
</svg>
