<?xml version="1.0" encoding="utf-8"?>
<!-- Generator: Adobe Illustrator 25.2.3, SVG Export Plug-In . SVG Version: 6.00 Build 0)  -->
<svg version="1.1" id="Layer_1" xmlns="http://www.w3.org/2000/svg" xmlns:xlink="http://www.w3.org/1999/xlink" x="0px" y="0px"
	 viewBox="0 0 16 14" style="enable-background:new 0 0 16 14;" xml:space="preserve">
<style type="text/css">
	.st0{fill-rule:evenodd;clip-rule:evenodd;}
</style>
<path class="st0" d="M7,10c0.9,0,1.7,0.6,1.9,1.5H9h6.5c0.3,0,0.5,0.2,0.5,0.5c0,0.2-0.2,0.4-0.4,0.5h-0.1H9H8.9
	C8.7,13.4,7.9,14,7,14s-1.7-0.6-1.9-1.5H0.5C0.2,12.5,0,12.3,0,12c0-0.2,0.2-0.4,0.4-0.5h0.1h4.6C5.3,10.6,6.1,10,7,10z M7,11
	c-0.6,0-1,0.4-1,1s0.4,1,1,1s1-0.4,1-1S7.6,11,7,11z M12,5c0.9,0,1.7,0.6,1.9,1.5H14h1.5C15.8,6.5,16,6.7,16,7
	c0,0.2-0.2,0.4-0.4,0.5h-0.1H14h-0.1C13.7,8.4,12.9,9,12,9s-1.7-0.6-1.9-1.5H0.5C0.2,7.5,0,7.3,0,7c0-0.2,0.2-0.4,0.4-0.5h0.1h9.6
	C10.3,5.6,11.1,5,12,5z M12,6c-0.6,0-1,0.4-1,1s0.4,1,1,1s1-0.4,1-1S12.6,6,12,6z M4,0c0.9,0,1.7,0.6,1.9,1.5H6h9.5
	C15.8,1.5,16,1.7,16,2c0,0.2-0.2,0.4-0.4,0.5h-0.1H6H5.9C5.7,3.4,4.9,4,4,4S2.3,3.4,2.1,2.5H0.5C0.2,2.5,0,2.3,0,2
	c0-0.2,0.2-0.4,0.4-0.5h0.1h1.6C2.3,0.6,3.1,0,4,0z M4,1C3.4,1,3,1.4,3,2s0.4,1,1,1s1-0.4,1-1S4.6,1,4,1z"/>
</svg>
