<?xml version="1.0" encoding="UTF-8"?>
<svg width="17px" height="17px" viewBox="0 0 17 17" version="1.1" xmlns="http://www.w3.org/2000/svg" xmlns:xlink="http://www.w3.org/1999/xlink">
    <!-- Generator: Sketch 52.4 (67378) - http://www.bohemiancoding.com/sketch -->
    <title>reorder</title>
    <desc>Created with Sketch.</desc>
    <g id="reorder" stroke="none" stroke-width="1" fill="none" fill-rule="evenodd">
        <path d="M11.2925083,5.47440143 L9.29973615,7.37755925 C9.11607103,7.55296501 8.82150681,7.55160646 8.63955782,7.37451448 C8.45982179,7.19957637 8.45982179,6.91594567 8.63955782,6.74100756 L8.64265659,6.73801996 L11.3727799,4.13066943 C11.4714971,4.03639152 11.6022519,3.99317901 11.7303384,4.00087184 C11.85836,3.99319134 11.9890488,4.03625225 12.08791,4.13025079 L14.8616779,6.76758718 C15.0431007,6.94008651 15.0464994,7.22307115 14.8692691,7.39965106 L14.8654956,7.40336692 C14.6834302,7.58057222 14.3887794,7.58224836 14.2045983,7.40712647 L12.2217591,5.52181589 L12.2217591,11.6624414 C12.2217591,11.912197 12.0137392,12.1146639 11.7571337,12.1146639 C11.5005282,12.1146639 11.2925083,11.912197 11.2925083,11.6624414 L11.2925083,5.47440143 Z M5.71700331,12.1041401 L7.65577657,10.2525528 C7.83944169,10.0771471 8.13400591,10.0785056 8.3159549,10.2555976 C8.49569093,10.4305357 8.49569093,10.7141664 8.3159549,10.8891045 L8.31285613,10.8920921 L5.58273284,13.4994427 C5.47934111,13.5981849 5.34080578,13.640911 5.2070002,13.627805 C5.06653561,13.6480682 4.91835806,13.6055824 4.81023702,13.5003475 L4.81001923,13.5001354 L2.13595789,10.8939999 C1.95459559,10.7172445 1.9546932,10.4308867 2.13617596,10.2542485 C2.31750311,10.0777617 2.61149251,10.0777617 2.79281966,10.2542485 L2.79303745,10.2544606 L4.78775249,12.1985064 L4.78775249,6.07722257 C4.78775249,5.82746694 4.99577237,5.625 5.2523779,5.625 C5.50898343,5.625 5.71700331,5.82746694 5.71700331,6.07722257 L5.71700331,12.1041401 Z" id="Shape" fill="currentColor"></path>
    </g>
</svg>
