<?xml version="1.0" encoding="utf-8"?>
<!-- Generator: Adobe Illustrator 25.2.3, SVG Export Plug-In . SVG Version: 6.00 Build 0)  -->
<svg version="1.1" id="Layer_1" xmlns="http://www.w3.org/2000/svg" xmlns:xlink="http://www.w3.org/1999/xlink" x="0px" y="0px"
	 viewBox="0 0 20 20" style="enable-background:new 0 0 20 20;" xml:space="preserve">
<style type="text/css">
	.st0{fill-rule:evenodd;clip-rule:evenodd;fill:#EEEEEE;}
	.st1{fill:none;stroke:#EEEEEE;stroke-miterlimit:10;}
</style>
<g id="Layer_1_1_">
	<g id="Icons_x2F_General_x2F_Manufacturer">
		<path id="Shape" class="st0" d="M12.8,6.5v4.1L20,6.8v11.7v0.1c-0.1,0.8-0.7,1.4-1.5,1.4H14h-1.1h-2.7H10H0.5
			C0.2,20,0,19.8,0,19.5l1.1-19C1.1,0.2,1.3,0,1.6,0h2.6c0.3,0,0.5,0.2,0.5,0.5l0.7,11.6 M15,19h3.5h0.1c0.2-0.1,0.4-0.3,0.4-0.5
			V8.3L11.9,12c0-0.2,0-3.8,0-3.8L5.5,13l0,0L6,19h3.1 M1,19h3.9L3.8,1H2.1L1,19z"/>
	</g>
	<rect x="13.7" y="14.4" class="st1" width="3.4" height="1.9"/>
	<rect x="7.9" y="14.4" class="st1" width="3.4" height="1.9"/>
</g>
<g id="Layer_2_1_">
</g>
</svg>
