<?xml version="1.0" encoding="utf-8"?>
<!-- Generator: Adobe Illustrator 25.4.1, SVG Export Plug-In . SVG Version: 6.00 Build 0)  -->
<svg version="1.1" id="Layer_1" xmlns="http://www.w3.org/2000/svg" xmlns:xlink="http://www.w3.org/1999/xlink" x="0px" y="0px"
	 viewBox="0 0 22 21" style="enable-background:new 0 0 22 21;" xml:space="preserve">
<style type="text/css">
	.st0{fill:#EEEEEE;}
</style>
<g id="EEyBrM.tif">
	<g>
		<path class="st0" d="M1.6,4.5c0,0.1,9.8-4.4,9.9-4.3c2.7,1.3,6.2,2.7,8.9,3.9c0.2,0.1,0.3,0.2,0.4,0.4c0,3.6,0,7.3,0,10.9
			c-0.1,0.2-0.2,0.3-0.4,0.4c-2.9,1.6-5.9,3.2-8.8,4.8c-0.1,0-0.2,0-0.3,0c-0.8-0.4-1.5-0.8-2.3-1.2C6.8,18.3,2.3,16,2.3,16
			l-0.5-0.3c0,0-0.2-0.1-0.2-0.5 M10.9,19.2c0-0.1,0-0.1,0-0.2c0-3.1,0-6.2,0-9.3c0-0.1,0-0.2-0.2-0.2C9.7,9,8.6,8.5,7.5,7.9
			c0,0-0.1,0-0.2-0.1c0,0.1,0,0.1,0,0.2c0,0.6,0,1.2,0,1.9c0,0.1,0,0.2-0.1,0.3c-0.1,0.2-0.4,0.3-0.6,0.3c-0.3-0.1-0.5-0.2-0.5-0.5
			c0-0.9,0-1.7,0-2.6c0-0.1,0-0.2-0.2-0.3C5.1,6.7,4.2,6.3,3.2,5.8C3.1,5.7,2.9,5.6,2.7,5.5c0,0.1,0,0.2,0,0.2c0,3,0,6.1,0,9.1
			c0,0.1,0,0.2,0.2,0.3c2.3,1.2,4.6,2.3,6.8,3.5C10.1,18.8,10.5,19,10.9,19.2z M19.7,5.6c-0.1,0-0.1,0.1-0.2,0.1
			c-2.4,1.3-4.9,2.6-7.3,3.9C12,9.6,12,9.7,12,9.8c0,3.1,0,6.2,0,9.2c0,0.1,0,0.1,0,0.2c0.1,0,0.1-0.1,0.2-0.1
			c2.4-1.3,4.8-2.6,7.2-3.9c0.1-0.1,0.2-0.2,0.2-0.3c0-3,0-6.1,0-9.1C19.7,5.7,19.7,5.6,19.7,5.6z M19,4.7c-0.1,0-0.1-0.1-0.2-0.1
			C17.9,4.1,17,3.7,16,3.3c-0.1-0.1-0.2-0.1-0.4,0c-2.5,1.2-5,2.4-7.5,3.6C8.1,6.9,8.1,6.9,8,7c0.1,0,0.1,0.1,0.2,0.1
			c1,0.5,2.1,1,3.1,1.6c0.1,0.1,0.2,0.1,0.3,0c2.3-1.2,4.6-2.4,6.8-3.6C18.6,4.9,18.8,4.8,19,4.7z M3.4,4.7c0.1,0,0.1,0,0.1,0.1
			c1.1,0.5,2.1,1.1,3.2,1.6c0.1,0,0.2,0,0.3,0c2.5-1.2,5-2.4,7.5-3.6c0.1,0,0.1-0.1,0.2-0.1c0,0-0.1,0-0.1,0c-1-0.4-1.9-0.9-2.9-1.3
			c-0.1,0-0.2,0-0.2,0c-1.1,0.5-2.1,0.9-3.2,1.4C6.6,3.3,5,4,3.4,4.7z"/>
	</g>
</g>
</svg>
