<svg xmlns="http://www.w3.org/2000/svg" width="17" height="17" viewBox="0 0 17 17">
    <g fill="currentColor" fill-rule="nonzero">
        <path d="M12.1 4.1H10v-.275C10 3.37 9.596 3 9.1 3H7.9c-.496 0-.9.37-.9.825V4.1H4.9c-.496 0-.9.37-.9.825v.55c0 .359.25.664.6.778v6.922c0 .455.404.825.9.825h6c.496 0 .9-.37.9-.825V6.253c.35-.114.6-.42.6-.778v-.55c0-.455-.404-.825-.9-.825zm-4.5-.275c0-.152.134-.275.3-.275h1.2c.166 0 .3.123.3.275V4.1H7.6v-.275zm3.9 9.625h-6c-.166 0-.3-.123-.3-.275V6.3h6.6v6.875c0 .152-.134.275-.3.275zm.9-7.975c0 .152-.134.275-.3.275H4.9c-.166 0-.3-.123-.3-.275v-.55c0-.152.134-.275.3-.275h7.2c.166 0 .3.123.3.275v.55z"/>
        <path d="M10.3 6.85c-.166 0-.3.123-.3.275v5.5c0 .152.134.275.3.275.166 0 .3-.123.3-.275v-5.5c0-.152-.134-.275-.3-.275zM8.5 6.85c-.166 0-.3.123-.3.275v5.5c0 .152.134.275.3.275.166 0 .3-.123.3-.275v-5.5c0-.152-.134-.275-.3-.275zM6.7 6.85c-.166 0-.3.123-.3.275v5.5c0 .152.134.275.3.275.166 0 .3-.123.3-.275v-5.5c0-.152-.134-.275-.3-.275z"/>
    </g>
</svg>
