<?xml version="1.0" encoding="UTF-8"?>
<svg width="24px" height="24px" viewBox="0 0 24 24" version="1.1" xmlns="http://www.w3.org/2000/svg" xmlns:xlink="http://www.w3.org/1999/xlink">
    <!-- Generator: Sketch 61.2 (89653) - https://sketch.com -->
    <desc>Created with Sketch.</desc>
    <g id="icon-why" stroke="none" stroke-width="1" fill="currentColor" fill-rule="evenodd">
        <path d="M17.2172955,3.02969553 C16.3633822,2.86231049 15.509469,3.42026062 15.3386863,4.25718581 L12.4353811,18.7638892 L11.5814678,18.7638892 L8.67816265,4.25718581 C8.50737999,3.42026062 7.65346671,2.86231049 6.79955342,3.02969553 C5.94564013,3.19708056 5.31943705,4.03400576 5.54714726,4.92672597 L5.83178502,6.48898634 L5.83178502,6.48898634 L8.67816265,20.7167147 C8.84894531,21.4420498 9.47514839,22 10.2721341,22 L10.2721341,22 L13.7447148,22 L13.7447148,22 C14.5417006,22 15.1679036,21.4420498 15.3386863,20.7167147 L18.1850639,6.48898634 L18.1850639,6.48898634 L18.4697017,4.92672597 C18.6404843,4.03400576 18.0712089,3.19708056 17.2172955,3.02969553 Z" id="XMLID_1023_"></path>
    </g>
</svg>