<?xml version="1.0" encoding="utf-8"?>
<!-- Generator: Adobe Illustrator 26.0.1, SVG Export Plug-In . SVG Version: 6.00 Build 0)  -->
<svg version="1.1" id="Layer_1" xmlns="http://www.w3.org/2000/svg" xmlns:xlink="http://www.w3.org/1999/xlink" x="0px" y="0px"
	 viewBox="0 0 35.1 13.2" style="enable-background:new 0 0 35.1 13.2;" xml:space="preserve">
<style type="text/css">
	.st0{fill:#D81E41;}
</style>
<g>
	<path class="st0" d="M2.1,13c-0.4,0-0.7-0.1-1-0.3s-0.3-0.6-0.3-1V4.5c0.1,0,0.3,0,0.5-0.1c0.2,0,0.4,0,0.6,0c0.2,0,0.4,0,0.6,0
		c0.2,0,0.3,0.1,0.4,0.2C3,4.7,3.1,4.8,3.1,4.9c0.1,0.1,0.1,0.3,0.1,0.6V11h3.2c0.1,0.1,0.1,0.2,0.2,0.4s0.1,0.4,0.1,0.5
		c0,0.4-0.1,0.6-0.2,0.8C6.3,12.9,6.1,13,5.8,13H2.1z"/>
	<path class="st0" d="M7.1,8.7c0-0.7,0.1-1.4,0.3-1.9c0.2-0.6,0.5-1,0.9-1.4C8.8,5,9.3,4.7,9.8,4.5s1.1-0.3,1.7-0.3
		c0.6,0,1.2,0.1,1.7,0.3c0.5,0.2,1,0.5,1.4,0.9s0.7,0.8,0.9,1.4C15.9,7.4,16,8,16,8.7c0,0.7-0.1,1.4-0.3,1.9c-0.2,0.6-0.5,1-0.9,1.4
		c-0.4,0.4-0.9,0.7-1.4,0.9c-0.5,0.2-1.1,0.3-1.8,0.3s-1.2-0.1-1.8-0.3c-0.5-0.2-1-0.5-1.4-0.9s-0.7-0.9-0.9-1.4
		C7.2,10.1,7.1,9.4,7.1,8.7z M9.6,8.7c0,0.8,0.2,1.5,0.5,1.9c0.3,0.4,0.8,0.6,1.4,0.6c0.6,0,1.1-0.2,1.4-0.6
		c0.3-0.4,0.5-1.1,0.5-1.9c0-0.8-0.2-1.5-0.5-1.9c-0.3-0.4-0.8-0.6-1.4-0.6c-0.6,0-1,0.2-1.4,0.6C9.8,7.2,9.6,7.9,9.6,8.7z"/>
	<path class="st0" d="M25.1,11.6c0,0.3-0.1,0.5-0.2,0.6c-0.1,0.1-0.3,0.3-0.5,0.4c-0.1,0.1-0.3,0.1-0.5,0.2
		c-0.2,0.1-0.4,0.1-0.6,0.2c-0.2,0.1-0.5,0.1-0.7,0.1c-0.3,0-0.5,0-0.8,0c-0.7,0-1.3-0.1-1.9-0.3c-0.6-0.2-1.1-0.5-1.5-0.8
		c-0.4-0.4-0.8-0.8-1-1.4S17,9.5,17,8.8c0-0.8,0.1-1.4,0.4-2s0.6-1,1.1-1.4c0.5-0.4,1-0.7,1.6-0.8c0.6-0.2,1.2-0.3,1.8-0.3
		c0.9,0,1.6,0.1,2.1,0.4s0.8,0.7,0.8,1.1c0,0.2-0.1,0.5-0.2,0.6c-0.1,0.2-0.3,0.3-0.4,0.4c-0.2-0.1-0.5-0.3-0.9-0.4S22.5,6.2,22,6.2
		c-0.8,0-1.4,0.2-1.9,0.7S19.5,8,19.5,8.8c0,0.4,0.1,0.8,0.2,1.1c0.1,0.3,0.3,0.6,0.5,0.8c0.2,0.2,0.5,0.3,0.7,0.4
		c0.3,0.1,0.6,0.1,0.9,0.1c0.2,0,0.4,0,0.5-0.1s0.3-0.1,0.4-0.1V9.7h-1.5c-0.1-0.1-0.1-0.2-0.2-0.4C21,9.2,21,9,21,8.8
		c0-0.3,0.1-0.6,0.2-0.7c0.2-0.1,0.4-0.2,0.6-0.2h2.4c0.3,0,0.5,0.1,0.7,0.2c0.2,0.2,0.2,0.4,0.2,0.7V11.6z"/>
	<path class="st0" d="M26.3,8.7c0-0.7,0.1-1.4,0.3-1.9c0.2-0.6,0.5-1,0.9-1.4c0.4-0.4,0.9-0.7,1.4-0.9s1.1-0.3,1.7-0.3
		c0.6,0,1.2,0.1,1.7,0.3c0.5,0.2,1,0.5,1.4,0.9s0.7,0.8,0.9,1.4C35,7.4,35.1,8,35.1,8.7c0,0.7-0.1,1.4-0.3,1.9
		c-0.2,0.6-0.5,1-0.9,1.4c-0.4,0.4-0.9,0.7-1.4,0.9c-0.5,0.2-1.1,0.3-1.8,0.3s-1.2-0.1-1.8-0.3c-0.5-0.2-1-0.5-1.4-0.9
		s-0.7-0.9-0.9-1.4C26.4,10.1,26.3,9.4,26.3,8.7z M28.8,8.7c0,0.8,0.2,1.5,0.5,1.9c0.3,0.4,0.8,0.6,1.4,0.6c0.6,0,1.1-0.2,1.4-0.6
		c0.3-0.4,0.5-1.1,0.5-1.9c0-0.8-0.2-1.5-0.5-1.9c-0.3-0.4-0.8-0.6-1.4-0.6c-0.6,0-1,0.2-1.4,0.6C28.9,7.2,28.8,7.9,28.8,8.7z"/>
</g>
<g>
	<path class="st0" d="M2.2,0.7C1.9,0.7,1.6,0.8,1.4,1S1.2,1.4,1.2,1.7c0,0.3,0.1,0.5,0.3,0.7c0.2,0.2,0.5,0.2,0.8,0.2
		c0.2,0,0.3,0,0.4-0.1S2.9,2.5,3,2.4c0.1,0,0.1,0.1,0.2,0.2s0.1,0.1,0.1,0.2C3.3,3,3.2,3.1,3,3.2C2.8,3.3,2.5,3.3,2.1,3.3
		c-0.3,0-0.6,0-0.8-0.1C1,3.2,0.8,3.1,0.6,2.9C0.4,2.8,0.3,2.6,0.2,2.4C0.1,2.2,0,2,0,1.7C0,1.4,0.1,1.2,0.2,1
		c0.1-0.2,0.2-0.4,0.4-0.5C0.8,0.3,1,0.2,1.2,0.1S1.7,0,2,0c0.4,0,0.7,0.1,0.9,0.2c0.2,0.1,0.3,0.2,0.3,0.4c0,0.1,0,0.2-0.1,0.2
		C3.1,0.9,3.1,0.9,3,0.9C2.9,0.9,2.8,0.8,2.6,0.8C2.5,0.8,2.4,0.7,2.2,0.7z"/>
	<path class="st0" d="M7.7,2c0,0.2,0,0.4-0.1,0.6S7.4,2.9,7.2,3C7.1,3.1,6.9,3.2,6.7,3.2S6.2,3.3,6,3.3c-0.3,0-0.5,0-0.7-0.1
		C5.1,3.2,4.9,3.1,4.8,3C4.6,2.8,4.5,2.7,4.4,2.5C4.3,2.4,4.3,2.2,4.3,2c0-0.2,0-0.4,0.1-0.6C4.5,1.3,4.6,1.1,4.8,1
		c0.1-0.1,0.3-0.2,0.5-0.3C5.5,0.7,5.7,0.6,6,0.6c0.3,0,0.5,0,0.7,0.1C6.9,0.8,7.1,0.9,7.2,1c0.1,0.1,0.3,0.3,0.3,0.4S7.7,1.8,7.7,2
		z M5.4,2c0,0.2,0.1,0.4,0.2,0.5S5.8,2.6,6,2.6s0.3-0.1,0.4-0.2S6.6,2.2,6.6,2c0-0.2,0-0.4-0.1-0.5C6.3,1.4,6.2,1.3,6,1.3
		S5.7,1.4,5.6,1.5C5.5,1.6,5.4,1.8,5.4,2z"/>
	<path class="st0" d="M10.4,0.6c0.2,0,0.3,0,0.5,0.1c0.2,0,0.3,0.1,0.4,0.2c0.1-0.1,0.3-0.1,0.4-0.2c0.2,0,0.4-0.1,0.6-0.1
		c0.2,0,0.3,0,0.5,0.1c0.2,0,0.3,0.1,0.4,0.2s0.2,0.2,0.3,0.3c0.1,0.1,0.1,0.3,0.1,0.4v1.6c0,0-0.1,0-0.2,0c-0.1,0-0.2,0-0.3,0
		c-0.1,0-0.2,0-0.3,0c-0.1,0-0.1,0-0.2-0.1c-0.1,0-0.1-0.1-0.1-0.1c0-0.1,0-0.1,0-0.2V1.6c0-0.1,0-0.2-0.1-0.2s-0.2-0.1-0.3-0.1
		c-0.1,0-0.1,0-0.2,0s-0.1,0-0.2,0.1c0,0,0,0,0,0c0,0,0,0,0,0v1.7c0,0-0.1,0-0.2,0c-0.1,0-0.2,0-0.3,0c-0.1,0-0.2,0-0.3,0
		c-0.1,0-0.1,0-0.2-0.1c-0.1,0-0.1-0.1-0.1-0.1s0-0.1,0-0.2V1.6c0-0.1,0-0.2-0.1-0.2s-0.2-0.1-0.3-0.1c-0.1,0-0.1,0-0.2,0
		c-0.1,0-0.1,0-0.1,0.1v1.8c0,0-0.1,0-0.2,0c-0.1,0-0.2,0-0.3,0c-0.1,0-0.2,0-0.3,0c-0.1,0-0.1,0-0.2-0.1S8.9,3.1,8.9,3.1
		c0-0.1,0-0.1,0-0.2V1.3c0-0.1,0-0.2,0.1-0.2C9,1,9.1,1,9.1,0.9c0.1-0.1,0.3-0.2,0.5-0.2C9.9,0.7,10.1,0.6,10.4,0.6z"/>
	<path class="st0" d="M16.4,0.6c0.3,0,0.5,0,0.7,0.1c0.2,0.1,0.4,0.1,0.6,0.2c0.2,0.1,0.3,0.2,0.4,0.4s0.1,0.4,0.1,0.6
		c0,0.2,0,0.4-0.1,0.6C18,2.7,17.9,2.9,17.8,3c-0.1,0.1-0.3,0.2-0.5,0.3c-0.2,0.1-0.4,0.1-0.7,0.1c-0.2,0-0.4,0-0.5-0.1v0.9
		c0,0-0.1,0-0.2,0c-0.1,0-0.2,0-0.3,0c-0.1,0-0.2,0-0.3,0c-0.1,0-0.1,0-0.2-0.1C15.1,4.1,15,4,15,4s0-0.1,0-0.2V1.3
		C15,1.2,15,1.1,15,1c0-0.1,0.1-0.1,0.2-0.2c0.1-0.1,0.3-0.1,0.5-0.2C15.9,0.7,16.2,0.6,16.4,0.6z M16.4,2.6c0.4,0,0.7-0.2,0.7-0.6
		c0-0.2-0.1-0.4-0.2-0.5c-0.1-0.1-0.3-0.2-0.5-0.2c-0.1,0-0.2,0-0.2,0s-0.1,0-0.2,0.1v1.1c0.1,0,0.1,0,0.2,0.1S16.3,2.6,16.4,2.6z"
		/>
	<path class="st0" d="M20.7,0.6c0.2,0,0.4,0,0.6,0.1s0.4,0.1,0.5,0.2C21.9,1,22,1,22.1,1.2c0.1,0.1,0.1,0.3,0.1,0.4v1.2
		c0,0.1,0,0.2-0.1,0.2C22.1,3,22,3.1,21.9,3.1c-0.3,0.1-0.7,0.2-1.2,0.2c-0.2,0-0.4,0-0.6-0.1c-0.2,0-0.3-0.1-0.5-0.2
		C19.5,3,19.4,3,19.3,2.8c-0.1-0.1-0.1-0.2-0.1-0.4c0-0.2,0.1-0.4,0.3-0.5c0.2-0.1,0.4-0.2,0.8-0.2l0.8-0.1v0c0-0.1-0.1-0.2-0.2-0.2
		c-0.1,0-0.3-0.1-0.5-0.1c-0.2,0-0.3,0-0.5,0s-0.3,0.1-0.4,0.1c-0.1,0-0.1-0.1-0.1-0.1c0-0.1-0.1-0.1-0.1-0.2c0-0.1,0-0.2,0.1-0.2
		c0.1-0.1,0.1-0.1,0.2-0.1c0.1,0,0.3-0.1,0.4-0.1S20.5,0.6,20.7,0.6z M20.7,2.7c0.1,0,0.2,0,0.2,0c0.1,0,0.2,0,0.2,0V2.2l-0.5,0
		c-0.1,0-0.2,0-0.3,0.1c-0.1,0-0.1,0.1-0.1,0.2s0,0.1,0.1,0.2C20.4,2.7,20.6,2.7,20.7,2.7z"/>
	<path class="st0" d="M25.5,1.6c0-0.1,0-0.2-0.1-0.2c-0.1,0-0.2-0.1-0.3-0.1c-0.1,0-0.2,0-0.3,0c-0.1,0-0.2,0-0.2,0.1v1.8
		c0,0-0.1,0-0.2,0c-0.1,0-0.2,0-0.3,0c-0.1,0-0.2,0-0.3,0c-0.1,0-0.1,0-0.2-0.1s-0.1-0.1-0.1-0.1c0-0.1,0-0.1,0-0.2V1.3
		c0-0.1,0-0.2,0.1-0.2c0-0.1,0.1-0.1,0.2-0.2c0.1-0.1,0.3-0.2,0.6-0.2c0.2-0.1,0.5-0.1,0.7-0.1c0.5,0,0.9,0.1,1.1,0.3
		s0.4,0.4,0.4,0.7v1.6c0,0-0.1,0-0.2,0c-0.1,0-0.2,0-0.3,0c-0.1,0-0.2,0-0.3,0c-0.1,0-0.1,0-0.2-0.1s-0.1-0.1-0.1-0.1
		c0-0.1,0-0.1,0-0.2V1.6z"/>
	<path class="st0" d="M28.4,2.6c0-0.1-0.1-0.2-0.2-0.3s-0.1-0.2-0.2-0.4C28,1.8,28,1.6,27.9,1.5c-0.1-0.2-0.1-0.4-0.2-0.6
		c0.1,0,0.1-0.1,0.2-0.1s0.2-0.1,0.3-0.1c0.2,0,0.3,0,0.4,0.1c0.1,0,0.2,0.1,0.2,0.3l0.5,1.4h0c0.1-0.1,0.1-0.2,0.2-0.4
		c0-0.1,0.1-0.3,0.1-0.4c0-0.1,0.1-0.3,0.1-0.4s0.1-0.3,0.1-0.4c0.2-0.1,0.3-0.1,0.5-0.1c0.2,0,0.3,0,0.4,0.1C31,0.8,31,0.9,31,1
		c0,0.1,0,0.2,0,0.3c0,0.1-0.1,0.3-0.1,0.4c0,0.1-0.1,0.3-0.2,0.4c-0.1,0.1-0.1,0.3-0.2,0.4c-0.1,0.1-0.1,0.3-0.2,0.4
		c-0.1,0.1-0.2,0.2-0.2,0.3c-0.1,0.2-0.2,0.3-0.3,0.4c-0.1,0.1-0.2,0.2-0.3,0.3c-0.1,0.1-0.2,0.1-0.3,0.1c-0.1,0-0.2,0-0.3,0
		c-0.2,0-0.3,0-0.4-0.1c-0.1-0.1-0.2-0.2-0.2-0.3c0.1-0.1,0.3-0.2,0.4-0.3s0.3-0.2,0.4-0.3c-0.1,0-0.2-0.1-0.2-0.1
		C28.6,2.9,28.5,2.8,28.4,2.6z"/>
</g>
</svg>
